<?xml version="1.0" standalone="no"?>
<!DOCTYPE svg PUBLIC "-//W3C//DTD SVG 20010904//EN"
 "http://www.w3.org/TR/2001/REC-SVG-20010904/DTD/svg10.dtd">
<svg version="1.0" xmlns="http://www.w3.org/2000/svg"
 width="2000.000000pt" height="2000.000000pt" viewBox="0 0 2000.000000 2000.000000"
 preserveAspectRatio="xMidYMid meet">

<g transform="translate(0.000000,2000.000000) scale(0.100000,-0.100000)"
fill="#000000" stroke="none">
<path d="M5369 13847 c-8 -12 -33 -62 -54 -112 -46 -110 -68 -161 -107 -245
-16 -36 -37 -83 -45 -105 -8 -22 -39 -92 -68 -155 -29 -63 -67 -151 -85 -195
-19 -44 -55 -126 -82 -183 -26 -57 -48 -105 -48 -107 0 -2 -25 -59 -56 -127
-63 -141 -80 -179 -101 -228 -8 -19 -28 -62 -44 -95 -16 -33 -44 -96 -62 -140
-86 -202 -120 -281 -128 -289 -5 -6 -9 -16 -9 -24 0 -7 -14 -43 -31 -80 -37
-80 -62 -135 -82 -182 -8 -19 -27 -62 -42 -95 -15 -33 -56 -127 -92 -210 -84
-198 -77 -182 -106 -245 -14 -30 -32 -71 -40 -90 -8 -19 -25 -57 -37 -85 -12
-27 -28 -66 -35 -85 -7 -19 -36 -87 -64 -150 -77 -170 -102 -226 -121 -275 -4
-11 -31 -68 -59 -127 -28 -60 -51 -114 -51 -122 0 -15 -9 -15 240 10 85 8 207
20 270 25 231 18 408 38 487 55 42 8 69 -1 55 -19 -10 -12 -24 -52 -52 -147
-8 -25 -17 -49 -22 -55 -4 -5 -8 -19 -8 -31 0 -13 -4 -26 -10 -29 -5 -3 -10
-17 -10 -30 0 -13 -4 -27 -10 -30 -5 -3 -10 -16 -10 -29 0 -12 -4 -26 -8 -31
-5 -6 -14 -30 -21 -55 -18 -60 -31 -101 -42 -125 -5 -11 -29 -81 -54 -155 -25
-74 -49 -144 -54 -155 -12 -27 -26 -70 -41 -125 -6 -25 -16 -53 -21 -62 -5
-10 -9 -27 -9 -37 0 -11 -4 -23 -10 -26 -5 -3 -10 -15 -10 -26 0 -10 -4 -27
-9 -37 -24 -48 -71 -192 -71 -219 0 -10 -4 -23 -8 -28 -4 -6 -13 -26 -19 -45
-6 -19 -27 -80 -46 -135 -19 -55 -49 -147 -67 -205 -17 -58 -36 -113 -41 -122
-5 -10 -9 -26 -9 -36 0 -10 -4 -22 -8 -27 -4 -6 -14 -28 -21 -50 -7 -22 -16
-49 -21 -60 -5 -11 -21 -56 -35 -100 -33 -100 -76 -199 -171 -390 -41 -83 -74
-156 -74 -163 0 -6 -4 -12 -10 -12 -5 0 -10 -8 -10 -17 0 -30 34 13 81 102 23
44 44 82 48 85 3 3 13 19 22 35 9 17 46 86 83 155 37 69 92 165 122 214 30 49
54 91 54 93 0 2 13 23 28 46 15 23 43 71 62 107 18 36 45 83 60 105 36 52 70
121 70 138 0 9 -10 15 -25 15 -17 0 -25 -6 -25 -18 0 -16 -106 -221 -140 -270
-9 -14 -20 -32 -23 -40 -20 -46 5 81 33 170 18 58 40 137 50 175 9 39 25 86
34 104 10 18 28 75 41 125 27 105 51 183 65 208 6 10 10 24 10 32 0 8 4 16 10
18 5 2 15 30 21 63 6 33 19 69 29 80 10 11 21 43 25 70 4 28 20 78 36 111 16
34 29 69 29 79 0 20 19 57 36 70 8 6 16 39 19 74 5 70 8 75 43 86 18 5 22 2
22 -14 0 -12 -4 -30 -10 -41 -24 -48 -28 -58 -39 -110 -15 -64 -26 -98 -53
-160 -32 -71 -98 -277 -98 -305 0 -37 14 -24 30 27 7 24 20 61 30 83 10 22 23
58 31 80 7 22 17 44 21 50 4 5 8 17 8 27 0 10 4 26 10 36 10 18 80 215 80 225
0 4 11 30 24 59 76 166 223 553 256 674 12 44 24 87 26 97 4 14 -1 17 -28 17
-18 -1 -60 -7 -93 -16 -95 -23 -151 -34 -285 -55 -69 -10 -150 -24 -180 -29
-52 -10 -106 -18 -275 -40 -38 -5 -106 -16 -150 -24 -44 -9 -94 -16 -112 -16
l-31 0 20 58 c22 64 17 54 93 220 30 68 55 125 55 127 0 2 29 63 64 137 76
158 136 288 136 294 0 2 10 26 21 52 27 61 41 92 74 172 15 36 38 89 51 118
13 29 24 55 24 58 0 3 17 43 38 87 40 84 63 136 89 197 8 19 19 44 24 55 4 11
27 63 50 115 22 52 59 140 81 195 22 55 46 116 55 135 8 19 19 44 23 55 12 29
35 84 58 136 12 25 30 68 40 95 11 27 34 79 51 117 17 37 31 70 31 72 0 3 10
27 21 53 37 82 47 105 74 177 15 39 31 79 36 90 60 136 101 235 151 360 57
143 67 170 99 275 7 25 24 67 37 93 47 99 67 182 31 134z m-450 -3641 c-7 -20
-17 -36 -22 -36 -11 0 0 50 15 68 18 21 21 6 7 -32z m-152 -328 c-8 -65 -13
-94 -26 -133 -9 -29 -9 -29 -11 -5 -4 45 1 94 12 130 6 19 12 41 14 48 2 6 6
12 10 12 4 0 4 -24 1 -52z m-50 -200 c-3 -7 -5 -2 -5 12 0 14 2 19 5 13 2 -7
2 -19 0 -25z"/>
<path d="M5431 13759 c-7 -13 -17 -76 -22 -155 -5 -74 -13 -153 -18 -176 -18
-79 -81 -542 -81 -593 0 -63 17 -27 24 50 3 39 10 102 16 140 6 39 13 99 16
135 3 36 11 79 18 95 7 17 19 64 26 105 6 41 17 89 22 105 10 29 25 315 17
315 -2 0 -10 -10 -18 -21z"/>
<path d="M4920 13680 c0 -5 7 -10 16 -10 8 0 12 5 9 10 -3 6 -10 10 -16 10 -5
0 -9 -4 -9 -10z"/>
<path d="M4885 13660 c-3 -5 1 -10 10 -10 9 0 13 5 10 10 -3 6 -8 10 -10 10
-2 0 -7 -4 -10 -10z"/>
<path d="M4848 13633 c7 -3 16 -2 19 1 4 3 -2 6 -13 5 -11 0 -14 -3 -6 -6z"/>
<path d="M4808 13613 c7 -3 16 -2 19 1 4 3 -2 6 -13 5 -11 0 -14 -3 -6 -6z"/>
<path d="M5005 13575 c-22 -19 -45 -34 -51 -35 -6 0 -17 -7 -24 -15 -7 -8 -49
-33 -94 -55 -83 -41 -137 -71 -146 -80 -3 -3 -66 -37 -140 -75 -74 -37 -151
-77 -170 -88 -19 -11 -64 -36 -100 -55 -36 -19 -84 -45 -107 -58 -114 -64
-234 -128 -393 -212 -117 -61 -214 -112 -261 -140 -21 -11 -106 -55 -190 -97
-85 -42 -165 -83 -179 -90 l-25 -14 0 -255 c0 -141 0 -256 0 -256 0 -1 -42 -3
-93 -7 -66 -4 -96 -2 -107 7 -12 10 -15 48 -15 218 l0 205 -47 -7 c-27 -4 -73
-11 -103 -16 -30 -6 -120 -14 -200 -19 -80 -6 -146 -10 -147 -10 -2 -1 -3
-678 -3 -1504 0 -827 -3 -1506 -6 -1510 -4 -3 -18 0 -33 8 -15 7 -44 16 -65
20 -21 4 -39 13 -42 19 -2 6 -5 705 -6 1553 l-3 1541 35 7 c37 7 148 20 310
35 129 12 222 31 295 60 65 25 292 136 355 173 25 15 79 43 120 63 106 51 304
151 378 190 35 19 70 34 78 34 8 0 14 5 14 10 0 6 9 10 20 10 11 0 20 5 20 10
0 6 9 10 19 10 11 0 21 4 23 8 2 5 109 62 238 126 129 65 237 120 239 122 2 2
2 7 -2 10 -6 6 -92 -31 -182 -78 -104 -54 -327 -169 -385 -198 -133 -66 -276
-139 -315 -159 -22 -11 -67 -34 -100 -49 -110 -53 -230 -117 -233 -124 -2 -5
-12 -8 -23 -8 -10 0 -19 -4 -19 -10 0 -5 -6 -10 -14 -10 -8 0 -42 -16 -76 -35
-34 -19 -66 -35 -71 -35 -5 0 -9 -4 -9 -10 0 -5 -9 -10 -19 -10 -11 0 -22 -4
-25 -9 -3 -5 -18 -12 -33 -15 -16 -4 -46 -12 -68 -17 -39 -11 -125 -20 -355
-39 -200 -16 -230 -21 -240 -40 -5 -10 -10 -118 -11 -241 0 -122 -3 -229 -6
-237 -3 -7 -93 -56 -199 -108 -106 -52 -195 -98 -198 -102 -3 -4 -6 -519 -7
-1143 -1 -698 -5 -1141 -11 -1152 -6 -12 -15 -16 -26 -11 -9 3 -33 10 -52 13
l-35 6 -3 1138 c-1 776 -5 1137 -12 1137 -6 0 -23 -9 -38 -19 -15 -11 -34 -21
-42 -22 -27 -3 -50 1 -50 9 0 11 234 152 254 152 7 0 16 4 22 9 15 15 125 71
139 71 7 0 15 4 17 9 2 5 30 23 63 40 67 34 147 80 155 88 21 22 -124 -46
-300 -139 -89 -47 -99 -53 -145 -75 -22 -11 -57 -30 -78 -41 -21 -12 -42 -22
-48 -22 -6 0 -30 -14 -55 -30 l-44 -31 0 -1149 0 -1150 -42 -1 c-48 0 -130 -8
-134 -12 -2 -1 36 -11 84 -21 48 -10 96 -21 107 -26 44 -17 92 -30 109 -30 16
0 114 -29 171 -50 11 -4 67 -22 125 -41 58 -18 109 -36 114 -41 6 -4 20 -8 32
-8 13 0 26 -4 29 -10 3 -5 17 -10 30 -10 13 0 27 -4 30 -10 3 -5 14 -10 23
-10 9 0 53 -14 97 -31 98 -39 225 -85 285 -105 25 -8 55 -19 68 -25 12 -5 32
-13 45 -18 12 -5 43 -18 69 -30 26 -12 52 -21 58 -21 6 0 18 -4 28 -9 23 -12
60 -26 102 -41 19 -7 44 -16 55 -20 11 -4 63 -24 115 -45 52 -20 105 -41 118
-46 12 -5 32 -13 45 -18 12 -4 33 -13 47 -18 14 -6 37 -15 53 -22 15 -6 37
-15 50 -20 12 -5 42 -18 67 -29 51 -22 65 -28 240 -102 149 -62 186 -78 224
-96 16 -8 37 -14 48 -14 37 0 16 22 -49 51 -38 17 -90 41 -118 54 -27 12 -66
28 -85 35 -19 7 -54 21 -77 31 -24 11 -45 19 -48 19 -3 0 -27 10 -53 21 -80
36 -105 47 -152 64 -25 10 -67 27 -95 40 -27 12 -77 33 -110 45 -33 13 -64 27
-69 32 -6 4 -20 8 -32 8 -13 0 -26 5 -29 10 -3 6 -13 10 -21 10 -8 0 -33 8
-57 19 -23 10 -58 24 -77 31 -42 14 -62 22 -115 45 -78 34 -100 43 -135 55
-19 7 -44 16 -55 20 -11 5 -63 25 -115 45 -52 20 -104 40 -115 45 -77 31 -130
50 -146 50 -10 0 -21 5 -24 10 -3 6 -15 10 -26 10 -10 0 -27 4 -37 9 -9 5 -51
19 -92 32 -41 12 -79 26 -84 31 -6 4 -18 8 -28 8 -10 0 -26 4 -36 9 -13 7
-182 61 -240 77 -18 5 -15 34 5 34 21 0 159 -35 239 -60 34 -11 71 -20 82 -20
12 0 24 -4 27 -10 3 -5 19 -10 35 -10 16 0 32 -4 35 -10 3 -5 21 -10 39 -10
17 0 36 -4 42 -9 5 -5 27 -11 49 -14 75 -10 115 -21 167 -48 10 -5 27 -9 37
-9 11 0 23 -4 26 -10 3 -5 17 -10 30 -10 13 0 27 -4 30 -10 3 -5 17 -10 30
-10 13 0 27 -4 30 -10 3 -5 16 -10 29 -10 12 0 26 -4 32 -8 5 -5 29 -14 54
-21 64 -19 201 -62 228 -72 12 -5 32 -13 45 -18 12 -5 40 -15 62 -22 22 -7 44
-17 49 -21 6 -4 20 -8 32 -8 13 0 26 -4 29 -10 3 -5 17 -10 30 -10 13 0 27 -4
30 -10 3 -5 17 -10 30 -10 13 0 27 -4 30 -10 3 -5 17 -10 30 -10 13 0 26 -4
29 -9 3 -5 16 -11 28 -14 57 -14 99 -27 178 -57 108 -40 183 -65 240 -80 25
-6 64 -20 87 -31 24 -10 47 -19 52 -19 8 0 45 -17 113 -51 10 -5 25 -9 33 -9
9 0 18 -6 21 -14 6 -15 -23 -134 -36 -151 -4 -5 -10 -23 -13 -40 -3 -16 -11
-48 -17 -70 -7 -22 -14 -57 -17 -78 -3 -20 -9 -40 -14 -43 -5 -3 -9 -13 -9
-23 0 -30 -22 -42 -51 -28 -13 7 -51 24 -84 37 -33 13 -91 38 -130 56 -38 17
-92 42 -120 54 -27 12 -74 33 -103 46 -29 13 -54 24 -57 24 -2 0 -75 34 -162
76 -87 41 -176 84 -198 94 -61 27 -191 89 -390 185 -99 48 -189 90 -200 95
-11 4 -58 26 -105 48 -131 62 -206 96 -320 146 -125 56 -184 83 -350 165 -69
34 -131 61 -137 61 -7 0 -13 3 -13 8 0 4 -15 13 -32 20 -18 8 -68 29 -110 48
-43 19 -81 34 -86 34 -5 0 -15 7 -22 15 -7 8 -28 15 -47 15 l-35 0 24 -29 c13
-15 48 -47 78 -69 30 -23 69 -55 87 -72 18 -16 36 -30 40 -30 4 0 42 -35 83
-77 101 -104 232 -229 246 -234 13 -5 186 -164 343 -316 109 -105 139 -131
221 -193 79 -60 75 -52 53 -90 -33 -62 -56 -94 -109 -152 -99 -108 -86 -147
107 -330 191 -181 314 -284 375 -314 72 -35 118 -28 184 31 83 73 140 80 246
27 96 -48 152 -78 166 -89 7 -6 58 -34 113 -63 55 -28 110 -61 122 -73 28 -25
30 -69 6 -123 -9 -22 -20 -70 -24 -109 -4 -38 -13 -95 -19 -125 -6 -30 -15
-86 -20 -124 -5 -38 -12 -76 -15 -84 -11 -28 8 -32 39 -8 18 13 88 78 157 144
68 65 162 152 208 193 47 41 108 98 136 128 l52 53 54 -6 c30 -3 113 -10 184
-15 201 -14 233 -20 256 -49 11 -14 22 -37 26 -51 7 -30 58 -138 76 -162 6 -9
29 -24 49 -33 33 -16 63 -17 285 -12 404 8 541 19 594 44 25 12 57 34 70 48
22 24 24 34 26 147 2 85 6 123 15 129 7 4 60 23 118 42 58 19 157 53 220 76
63 22 133 47 155 55 54 20 68 19 112 -7 64 -36 186 -94 225 -107 21 -7 40 -17
43 -22 12 -19 82 -9 116 16 19 13 43 29 54 34 12 5 27 16 34 25 7 9 17 16 22
16 22 0 226 165 320 259 120 120 179 210 179 271 0 43 -34 126 -74 179 -14 19
-26 43 -26 52 0 10 -4 21 -10 24 -15 9 -11 66 8 104 26 52 78 74 196 82 56 4
120 10 143 14 74 13 164 109 243 260 24 44 46 85 50 90 10 13 84 151 127 235
20 40 33 80 33 104 0 34 -6 45 -42 78 -24 21 -74 59 -112 85 -56 39 -72 56
-85 90 -14 41 -14 44 7 72 12 17 22 33 22 37 0 3 19 45 41 92 23 48 52 110 66
139 15 33 31 99 43 184 21 144 32 166 93 189 74 29 86 35 91 50 3 8 11 26 19
40 37 62 46 193 23 320 -15 82 -29 147 -36 170 -4 14 -13 45 -20 70 -27 96
-58 140 -110 154 -14 4 -79 16 -145 26 -177 29 -183 30 -198 54 -7 11 -19 41
-26 66 -7 25 -17 58 -22 74 -5 16 -9 53 -9 82 0 48 4 56 38 91 76 75 171 227
201 319 24 73 -1 205 -60 316 -5 10 -9 73 -9 140 0 103 -4 133 -23 186 -43
121 -156 236 -284 290 -76 32 -256 43 -330 19 -26 -8 -60 -17 -74 -21 -33 -7
-122 -68 -173 -118 -42 -41 -57 -46 -75 -24 -7 8 -35 25 -64 39 -133 64 -225
106 -260 118 -49 17 -59 36 -43 74 28 64 38 114 39 214 l2 103 -35 29 c-19 16
-42 29 -51 29 -9 0 -45 14 -80 31 -35 17 -81 40 -102 50 -22 11 -45 19 -53 19
-8 0 -22 4 -32 10 -9 5 -61 26 -116 46 -54 20 -114 44 -133 55 -68 38 -78 30
-157 -124 -30 -59 -64 -120 -75 -136 -24 -33 -80 -53 -107 -38 -12 7 -36 6
-77 -2 -76 -16 -85 -8 -89 72 -3 54 -5 45 -17 -68 -15 -143 -26 -262 -40 -430
-6 -60 -15 -164 -21 -230 -6 -66 -15 -169 -20 -230 -6 -60 -14 -153 -20 -205
-5 -52 -14 -140 -20 -195 -5 -55 -14 -136 -20 -180 -17 -127 -29 -309 -21
-318 8 -8 336 5 582 23 74 6 189 10 255 10 108 0 123 2 139 20 10 11 24 20 31
20 18 0 135 121 275 285 19 22 89 96 156 165 66 69 131 138 143 153 12 15 26
27 30 25 4 -2 29 -29 55 -62 41 -50 187 -161 237 -179 9 -3 10 -9 3 -20 -16
-26 -222 -328 -260 -382 -33 -46 -44 -92 -28 -109 4 -3 12 2 17 13 6 11 27 37
46 58 52 56 147 177 215 274 33 46 65 90 72 97 7 7 17 20 22 29 6 11 30 19 72
25 35 4 78 10 94 13 l30 6 -32 -28 c-17 -16 -43 -44 -56 -63 -13 -20 -31 -44
-40 -55 -9 -11 -29 -37 -44 -57 -52 -69 -157 -203 -162 -208 -4 -3 -26 -30
-51 -60 -24 -30 -60 -71 -80 -90 -19 -19 -51 -53 -70 -75 -36 -41 -81 -75
-100 -75 -15 0 -40 67 -40 107 0 19 -5 54 -11 79 l-12 45 -90 -3 -91 -3 -66
-81 c-36 -44 -75 -93 -87 -110 -57 -76 -146 -194 -182 -242 -23 -29 -41 -56
-41 -61 0 -4 -9 -16 -20 -26 -11 -10 -20 -22 -20 -27 0 -5 -22 -37 -48 -71
-27 -34 -67 -89 -90 -122 -23 -33 -55 -78 -71 -100 -17 -22 -37 -55 -47 -72
-9 -18 -20 -33 -25 -33 -5 0 -9 -4 -9 -10 0 -5 -21 -37 -46 -70 -25 -33 -73
-102 -106 -153 -33 -50 -63 -94 -67 -97 -14 -11 -131 -170 -177 -240 -28 -41
-59 -89 -70 -105 -12 -17 -47 -70 -80 -120 -32 -49 -64 -97 -71 -105 -27 -34
-131 -179 -164 -230 -47 -72 -130 -197 -149 -224 -8 -12 -45 -65 -82 -118 -38
-53 -68 -99 -68 -103 0 -3 -80 -124 -177 -268 -97 -144 -204 -306 -237 -359
-52 -83 -193 -290 -296 -436 -16 -23 -30 -45 -30 -47 0 -7 -112 -167 -127
-183 -7 -7 -13 -17 -13 -22 0 -5 -6 -15 -13 -22 -7 -7 -24 -29 -37 -48 -13
-19 -28 -39 -32 -45 -21 -26 -98 -145 -98 -150 0 -7 -36 -58 -64 -92 -25 -30
-41 -30 -22 0 9 12 24 49 35 82 19 60 40 113 67 172 8 17 14 43 14 57 0 14 5
38 11 53 32 79 49 135 49 161 0 11 4 23 9 26 5 3 12 22 15 41 3 19 9 51 12 70
3 19 10 38 15 41 5 3 9 15 9 26 0 20 12 63 30 113 4 11 13 38 19 60 6 22 25
83 41 135 17 52 39 127 49 165 18 65 42 150 92 320 12 39 25 78 30 87 5 10 9
29 9 42 0 14 5 28 10 31 6 3 10 17 10 30 0 13 5 27 10 30 6 3 10 17 10 31 0
13 4 32 9 42 5 9 14 37 21 62 7 25 16 53 21 62 5 10 9 27 9 37 0 11 5 23 10
26 6 3 10 16 10 29 0 12 4 26 8 31 5 6 25 64 46 130 21 66 42 128 47 137 5 10
9 28 9 41 0 13 4 27 8 32 5 6 19 44 31 85 13 41 27 84 31 95 4 11 17 52 29 90
12 39 26 79 30 90 22 53 54 166 48 171 -4 4 -12 2 -19 -4 -7 -5 -44 -13 -83
-16 -38 -3 -124 -9 -190 -15 -66 -5 -185 -13 -265 -16 -80 -3 -174 -10 -210
-15 -82 -13 -300 -18 -300 -7 0 4 9 27 20 49 11 23 20 47 20 53 0 11 25 68 60
138 11 22 20 45 20 53 0 8 5 14 10 14 6 0 10 7 10 15 0 8 4 23 9 33 5 9 13 28
19 42 5 14 19 46 31 72 12 26 21 54 21 61 0 7 4 17 9 23 4 5 23 45 41 89 37
92 49 121 79 187 11 26 21 51 21 56 0 5 9 27 20 50 11 22 20 48 20 57 0 8 5
15 10 15 6 0 10 6 10 13 0 8 6 27 14 43 23 47 106 241 106 248 0 3 16 38 35
77 19 40 35 78 35 85 0 7 10 32 21 56 12 23 25 52 29 63 4 11 18 43 30 70 12
28 26 59 30 70 4 11 17 40 28 65 11 25 27 61 35 80 8 19 43 97 76 173 34 76
61 142 61 147 0 6 4 18 9 28 34 68 51 105 51 113 0 8 23 61 87 199 102 221
152 331 173 385 14 36 76 172 143 315 25 52 55 118 67 145 12 28 38 84 57 125
19 41 40 86 45 100 6 14 14 33 19 42 24 47 6 48 -46 3z m1477 -491 c3 -3 2
-17 -3 -32 -5 -15 -18 -72 -30 -127 -11 -55 -25 -109 -30 -120 -4 -11 -18 -51
-30 -90 -12 -38 -28 -84 -35 -102 -17 -38 -17 -43 -3 -43 14 0 46 35 65 73 13
24 20 27 65 27 30 0 66 -8 88 -19 20 -10 74 -37 120 -61 75 -38 107 -59 147
-98 10 -10 8 -22 -12 -69 -14 -30 -32 -101 -41 -156 -17 -101 -31 -110 -32
-20 -2 97 -22 95 -86 -8 -27 -44 -60 -91 -72 -106 -28 -31 -29 -40 -5 -46 12
-3 13 -5 2 -6 -18 -1 -42 14 -185 118 -60 44 -121 86 -135 93 -14 7 -52 29
-85 48 -60 36 -215 113 -290 145 -22 10 -53 23 -69 31 -16 8 -35 14 -43 14 -7
0 -21 4 -31 9 -39 21 -128 52 -164 57 -21 4 -41 11 -44 15 -3 5 -13 9 -22 9
-9 0 -26 8 -37 16 -19 15 -18 16 15 9 19 -4 81 -20 136 -36 56 -16 110 -29
120 -29 17 1 17 3 -5 20 l-23 20 22 0 c54 0 288 -97 382 -158 20 -13 42 -21
48 -17 13 8 64 117 87 185 8 25 20 59 28 75 34 77 89 214 106 267 29 93 59
134 81 112z m916 -405 c136 -30 212 -74 282 -161 68 -84 93 -149 98 -249 4
-73 1 -94 -20 -145 -26 -63 -107 -194 -121 -194 -4 0 -25 -14 -46 -30 -57 -46
-148 -71 -263 -71 -186 -2 -330 79 -401 223 -41 84 -54 210 -32 302 41 167
132 266 300 324 40 13 145 14 203 1z m-1935 -228 c17 -7 27 -7 27 -1 0 6 -7
10 -15 10 -8 0 -15 7 -15 15 0 21 23 19 152 -14 123 -32 195 -54 246 -77 17
-8 49 -21 70 -30 150 -65 315 -157 417 -235 32 -24 72 -54 89 -66 17 -11 69
-59 115 -106 l84 -85 -26 -31 c-14 -17 -29 -40 -32 -52 -6 -19 -17 -11 -99 68
-121 116 -218 193 -346 275 -66 43 -261 143 -330 170 -14 6 -33 14 -42 19 -10
5 -27 9 -37 9 -11 0 -22 4 -25 9 -3 5 -16 11 -28 14 -13 3 -68 19 -123 36 -55
17 -110 31 -122 31 -28 0 -34 11 -27 49 6 29 8 30 23 17 9 -8 28 -19 44 -25z
m-1815 -468 l-3 -278 -160 0 -160 0 -3 265 c-1 146 0 270 3 277 3 10 45 13
165 13 l160 0 -2 -277z m-450 -255 l2 -278 -155 0 -155 0 0 280 0 281 153 -3
152 -3 3 -277z m392 -233 l0 -186 -60 3 -60 3 -6 100 c-2 55 -2 137 2 183 l6
82 59 0 59 0 0 -185z m-522 -108 c13 -10 17 -215 6 -301 l-7 -46 -56 0 -56 0
3 172 c2 95 5 178 7 185 4 13 83 6 103 -10z m4455 -74 c70 -135 70 -136 98
-173 15 -19 30 -45 33 -57 6 -19 16 -22 89 -27 96 -5 295 -34 317 -45 45 -23
106 -247 126 -458 6 -56 4 -64 -18 -86 -20 -20 -40 -27 -92 -32 -83 -9 -152 3
-148 27 1 8 -5 19 -14 22 -13 5 -15 2 -10 -19 9 -37 -13 -32 -59 15 -21 22
-45 40 -52 40 -7 0 -13 4 -13 9 0 5 -21 20 -47 32 -45 22 -79 30 -198 47 l-50
8 74 6 c42 4 82 3 92 -2 10 -6 29 -10 43 -10 14 0 26 -4 26 -10 0 -5 6 -10 13
-10 7 0 29 -9 49 -20 41 -22 84 -18 51 5 -10 6 -45 22 -78 35 -33 13 -64 27
-69 32 -6 4 -16 8 -22 8 -33 0 -83 75 -90 134 -2 17 -8 32 -12 35 -16 12 -34
72 -29 98 5 29 -10 81 -30 101 -7 8 -18 34 -24 58 -6 24 -15 47 -20 49 -4 3
-6 12 -3 20 3 7 1 22 -5 33 -14 26 -4 53 16 45 14 -5 15 0 10 38 -4 24 -9 65
-13 92 -4 30 -3 47 4 47 5 0 30 -39 55 -87z m-3923 -60 c3 -5 4 -100 0 -213
l-5 -205 -137 -3 -138 -3 0 214 c0 118 2 216 4 218 8 7 269 0 276 -8z m3621
-383 c37 -136 48 -185 56 -262 5 -53 3 -59 -23 -83 -15 -14 -32 -24 -38 -22
-6 2 -11 26 -12 54 -1 27 -12 96 -24 152 -12 56 -19 110 -17 119 3 11 7 6 12
-15 10 -43 35 -66 35 -32 -1 24 -19 103 -39 169 -6 19 -11 48 -11 65 l0 30 15
-30 c8 -16 29 -82 46 -145z m160 -45 c11 -49 24 -119 30 -154 5 -35 12 -67 15
-72 6 -11 -7 -11 -23 -1 -7 5 -22 57 -33 118 -11 60 -27 141 -35 179 -9 39
-18 88 -21 110 -4 37 -2 34 22 -25 14 -36 34 -105 45 -155z m-4184 161 c4 -8
6 -153 3 -323 l-5 -308 -195 0 -195 0 -3 310 c-1 170 0 315 3 322 7 20 381 18
392 -1z m3959 -84 c3 -41 2 -53 -6 -42 -5 8 -10 29 -10 47 0 17 -4 35 -10 38
-5 3 -10 18 -10 33 l0 26 16 -22 c9 -13 18 -49 20 -80z m489 -379 c136 -33
230 -123 280 -267 20 -56 19 -193 -1 -242 -53 -129 -94 -176 -197 -227 -101
-50 -128 -57 -222 -57 -98 0 -129 9 -218 66 -75 48 -116 104 -144 191 -9 29
-23 54 -32 56 -9 2 -319 2 -688 -1 -465 -4 -673 -2 -673 5 0 6 21 39 48 73 26
35 58 78 72 96 53 71 32 68 665 72 313 2 577 8 587 13 9 5 26 29 38 55 13 25
37 60 55 78 36 35 130 86 160 86 11 0 27 5 35 10 18 12 177 7 235 -7z m-4573
-610 c3 -390 3 -398 23 -398 17 0 21 8 25 55 l5 55 34 -3 c57 -4 61 -13 61
-133 0 -77 -3 -109 -12 -109 -14 0 -75 19 -106 33 -29 13 -52 -4 -34 -26 27
-32 -20 -36 -98 -7 -30 11 -56 20 -57 20 -2 0 -3 205 -3 455 l0 455 80 0 80 0
2 -397z m4015 -185 c-3 -8 -6 -5 -6 6 -1 11 2 17 5 13 3 -3 4 -12 1 -19z
m-3547 -17 c80 -6 162 -13 182 -17 l37 -6 -5 -132 c-12 -341 -15 -376 -31
-376 -8 0 -47 9 -86 20 -40 10 -135 33 -212 51 -77 17 -144 36 -150 43 -6 7
-9 92 -7 225 l3 213 62 -6 c34 -3 127 -10 207 -15z m2799 7 c41 -14 115 -61
149 -95 30 -30 75 -116 91 -176 19 -68 9 -151 -27 -228 -61 -126 -84 -154
-156 -188 -115 -53 -224 -52 -340 5 -58 28 -129 100 -153 154 -26 60 -33 82
-33 103 0 49 -5 50 -212 48 -208 -2 -301 5 -295 23 2 6 21 16 42 22 l39 11
-32 6 c-39 8 -46 44 -9 52 24 5 354 25 423 25 43 0 44 1 92 73 87 128 170 176
306 177 44 0 96 -5 115 -12z m746 -59 c7 -39 8 -40 26 -23 10 9 19 23 19 29 0
7 7 16 16 19 24 9 12 -23 -68 -189 -95 -197 -183 -319 -370 -510 -86 -88 -175
-171 -198 -185 -22 -14 -40 -28 -40 -32 0 -5 -4 -8 -10 -8 -5 0 -51 -28 -102
-63 -51 -34 -131 -81 -178 -103 -80 -39 -107 -51 -197 -90 -21 -9 -46 -20 -55
-25 -10 -5 -27 -9 -37 -9 -11 0 -22 -4 -25 -9 -3 -5 -20 -11 -38 -14 -35 -6
-88 -19 -153 -37 -115 -32 -137 -36 -349 -65 -176 -25 -716 -11 -716 17 0 6
10 8 23 4 41 -11 444 -19 450 -10 3 6 2 16 -3 24 -7 11 -41 17 -137 21 -220
11 -314 21 -310 33 2 7 28 10 68 9 343 -13 724 15 902 66 61 18 105 30 140 40
132 37 263 92 403 172 19 10 49 28 68 38 110 63 200 121 261 172 65 53 230
218 265 265 8 11 35 47 61 79 73 96 166 248 241 392 12 23 25 40 29 37 4 -2
10 -22 14 -45z m221 -73 c-3 -6 -12 -35 -21 -64 -32 -103 -214 -427 -276 -493
-8 -8 -26 -30 -40 -49 -15 -19 -48 -57 -74 -83 -25 -27 -44 -52 -40 -55 3 -4
9 -2 13 3 4 6 44 45 89 88 71 68 84 76 104 69 13 -5 30 -7 37 -5 8 3 16 -4 19
-16 6 -23 19 -28 25 -9 3 8 14 2 31 -17 27 -31 35 -55 17 -55 -5 0 -10 -4 -10
-10 0 -6 9 -6 26 0 23 9 25 8 19 -10 -4 -11 -2 -20 4 -20 6 0 8 -12 5 -29 -3
-16 -2 -37 4 -47 8 -15 18 -9 73 48 35 36 75 84 89 106 17 29 37 46 66 57 39
16 42 15 95 -8 92 -42 131 -57 148 -57 28 0 95 73 115 126 32 80 85 187 108
216 l21 26 -35 34 c-19 18 -47 43 -64 56 l-29 23 30 -6 c32 -7 83 -39 128 -81
32 -29 31 -56 -4 -105 -10 -15 -19 -30 -19 -34 0 -3 -13 -25 -29 -49 -28 -40
-54 -86 -99 -170 -22 -41 -69 -76 -103 -76 -12 0 -49 14 -83 31 -118 60 -141
66 -168 42 -11 -10 -39 -45 -61 -78 -22 -33 -43 -62 -47 -65 -3 -3 -21 -25
-40 -50 -19 -25 -40 -52 -47 -60 -6 -8 -35 -44 -65 -78 -96 -115 -94 -111 -81
-130 7 -9 37 -68 67 -129 31 -62 65 -118 76 -125 29 -19 25 -37 -14 -53 -19
-8 -109 -64 -199 -123 -91 -60 -189 -121 -218 -136 -30 -16 -64 -38 -77 -50
-23 -21 -24 -21 -34 -1 -17 31 -219 226 -357 345 -36 30 -87 76 -115 103 -27
26 -53 47 -57 47 -3 0 -42 -16 -84 -35 -82 -37 -167 -70 -222 -86 -18 -5 -50
-14 -70 -20 -21 -6 -56 -14 -78 -18 -22 -5 -74 -15 -115 -24 -41 -8 -106 -20
-145 -26 -177 -28 -515 -41 -515 -21 0 6 29 10 67 10 47 0 64 3 56 11 -6 6
-94 11 -229 14 -211 3 -314 11 -314 24 0 3 163 6 363 6 351 0 407 4 577 36 57
11 149 33 210 50 19 6 51 14 70 18 121 29 421 159 565 246 207 125 458 347
605 533 74 94 200 294 252 399 47 95 52 102 79 101 18 -1 28 -6 25 -12z
m-2976 -106 c-6 -12 -22 -25 -36 -30 -15 -6 -24 -17 -24 -30 0 -34 -40 -41
-244 -38 l-191 3 -3 58 -3 57 256 0 c255 0 256 0 245 -20z m2418 -87 c-10 -2
-28 -2 -40 0 -13 2 -5 4 17 4 22 1 32 -1 23 -4z m-1144 -400 c-110 -35 -267
-65 -370 -70 -127 -6 -190 1 -163 18 7 5 37 9 64 9 28 0 86 7 130 15 44 9 132
20 195 26 63 5 116 12 118 14 2 2 11 1 20 -3 9 -3 12 -7 6 -9z m1677 -139 c-9
-20 -15 -24 -23 -16 -9 9 -8 18 1 38 9 20 15 24 23 16 9 -9 8 -18 -1 -38z
m-4364 -116 c18 -7 33 -16 33 -20 0 -4 9 -8 20 -8 11 0 20 -4 20 -10 0 -5 8
-10 17 -10 9 0 14 -3 10 -6 -8 -9 -66 12 -112 41 -44 27 -40 32 12 13z m172
-84 c18 -9 30 -18 28 -20 -5 -5 -77 24 -77 31 0 9 16 5 49 -11z m111 -54 c0
-13 -11 -13 -30 0 -12 8 -11 10 8 10 12 0 22 -4 22 -10z m-489 -58 c89 -47
164 -94 167 -103 2 -5 8 -9 14 -9 5 0 28 -13 51 -28 23 -16 66 -42 96 -58 29
-15 48 -30 43 -32 -20 -6 -214 105 -361 207 -84 58 -87 64 -10 23z m425 -257
c21 -11 24 -15 11 -15 -10 0 -25 7 -33 15 -19 19 -14 19 22 0z m-784 -23 c2
-4 32 -32 68 -61 63 -52 89 -81 73 -81 -4 0 -20 10 -34 23 -15 12 -49 38 -78
57 -29 20 -51 43 -51 53 0 17 15 24 22 9z m2413 -111 c-6 -5 -28 -6 -50 -1
l-40 8 50 1 c29 1 45 -3 40 -8z m165 -1 c11 -7 6 -10 -20 -10 -26 0 -31 3 -20
10 8 5 17 10 20 10 3 0 12 -5 20 -10z m1378 -62 c20 -20 14 -27 -45 -44 -32
-9 -74 -25 -94 -35 -21 -10 -68 -27 -105 -38 -38 -11 -96 -29 -129 -41 -120
-41 -148 -48 -129 -31 5 5 63 30 129 56 66 26 149 64 185 84 100 56 164 73
188 49z m-658 -253 c8 -10 15 -80 21 -202 5 -104 13 -203 19 -222 13 -47 4
-52 -28 -14 -35 43 -66 48 -204 34 -62 -6 -149 -13 -193 -16 -44 -3 -132 -13
-195 -21 -63 -7 -135 -14 -161 -14 -52 0 -56 5 -79 105 -18 84 -94 267 -119
289 -11 10 -54 16 -136 20 -66 3 -142 10 -170 15 -40 8 -25 9 75 5 188 -7 236
-10 250 -19 18 -11 76 -142 117 -265 20 -58 41 -108 47 -112 16 -11 231 -10
260 2 35 13 381 43 427 37 50 -7 63 4 56 44 -4 19 -7 75 -8 125 -1 51 -6 117
-11 149 -11 72 2 96 32 60z"/>
<path d="M7230 12529 c-50 -22 -143 -108 -165 -153 -10 -19 -15 -60 -15 -117
0 -118 29 -172 129 -242 41 -28 52 -31 130 -31 167 -2 252 51 302 187 21 56
24 103 10 139 -5 13 -14 41 -21 63 -30 96 -152 176 -268 174 -34 0 -75 -9
-102 -20z m215 -104 c118 -69 106 -255 -20 -314 -117 -55 -253 7 -270 124 -12
75 0 114 46 161 67 68 159 79 244 29z"/>
<path d="M7836 10541 c-3 -5 1 -11 9 -15 9 -3 15 0 15 9 0 16 -16 20 -24 6z"/>
<path d="M7950 10476 c0 -10 28 -13 41 -5 10 6 7 9 -13 9 -16 0 -28 -2 -28 -4z"/>
<path d="M7221 10644 c0 -11 3 -14 6 -6 3 7 2 16 -1 19 -3 4 -6 -2 -5 -13z"/>
<path d="M7228 10609 c-3 -8 -1 -25 5 -39 10 -25 11 -25 14 -3 5 28 -11 62
-19 42z"/>
<path d="M7432 10383 c-47 -16 -121 -83 -139 -123 -28 -66 -33 -85 -33 -135 0
-142 108 -245 257 -245 71 0 125 18 180 60 51 39 75 81 93 158 19 83 0 144
-63 210 -83 84 -191 112 -295 75z"/>
<path d="M6205 9575 c-5 -2 -22 -6 -37 -9 -37 -8 -98 -63 -114 -103 -8 -18
-14 -60 -14 -95 0 -104 43 -165 148 -208 28 -11 40 -11 75 1 128 41 203 145
176 244 -15 54 -61 118 -102 142 -32 19 -110 36 -132 28z"/>
<path d="M7191 8824 c0 -11 3 -14 6 -6 3 7 2 16 -1 19 -3 4 -6 -2 -5 -13z"/>
<path d="M7186 8705 c-9 -14 -13 -25 -9 -25 12 1 46 50 35 50 -6 0 -17 -11
-26 -25z"/>
<path d="M4758 13593 c7 -3 16 -2 19 1 4 3 -2 6 -13 5 -11 0 -14 -3 -6 -6z"/>
<path d="M4635 13544 c-33 -18 -77 -42 -97 -51 -21 -10 -38 -21 -38 -25 0 -11
18 -10 25 2 3 6 15 10 25 10 10 0 20 4 22 8 2 4 38 25 81 46 42 21 77 40 77
42 0 12 -42 -2 -95 -32z"/>
<path d="M4460 13450 c0 -5 4 -10 9 -10 6 0 13 5 16 10 3 6 -1 10 -9 10 -9 0
-16 -4 -16 -10z"/>
<path d="M4425 13430 c-3 -5 -2 -10 4 -10 5 0 13 5 16 10 3 6 2 10 -4 10 -5 0
-13 -4 -16 -10z"/>
<path d="M5302 12700 c0 -19 2 -27 5 -17 2 9 2 25 0 35 -3 9 -5 1 -5 -18z"/>
<path d="M5298 12654 c-5 -4 -8 -23 -8 -43 1 -30 2 -33 11 -18 11 19 8 73 -3
61z"/>
<path d="M13560 12535 c-239 -29 -362 -75 -543 -204 -117 -83 -214 -216 -253
-346 -28 -93 -24 -275 8 -382 27 -90 98 -215 165 -292 24 -27 43 -54 43 -59 0
-5 -12 -13 -27 -17 -49 -12 -169 -77 -239 -129 -79 -59 -158 -158 -209 -263
-55 -112 -68 -178 -69 -340 -1 -78 -4 -139 -8 -135 -3 4 -54 129 -113 277 -58
149 -121 306 -140 350 -41 97 -103 249 -284 695 -134 329 -322 773 -334 788
-7 9 -146 12 -632 12 l-622 0 -48 -107 c-26 -60 -103 -227 -171 -372 -68 -144
-124 -265 -124 -266 0 -2 -40 -88 -90 -191 -49 -102 -90 -189 -90 -192 0 -2
-20 -46 -44 -96 -24 -50 -56 -118 -71 -151 -15 -33 -54 -114 -85 -180 -32 -66
-92 -194 -133 -285 -41 -91 -109 -236 -151 -323 -42 -87 -76 -159 -76 -162 0
-2 -54 -117 -120 -256 -66 -138 -120 -255 -120 -259 0 -4 28 -13 63 -21 47
-11 164 -14 502 -14 242 0 452 3 466 7 22 6 37 36 113 212 49 112 100 218 115
236 l26 31 620 -3 620 -3 96 -225 96 -224 39 -9 c54 -12 951 -4 963 8 11 12
-3 56 -69 215 -74 177 -74 176 26 79 180 -173 363 -263 628 -309 240 -41 595
-16 821 58 106 34 172 66 251 122 31 22 62 40 68 40 6 0 40 -30 76 -66 36 -36
89 -87 119 -113 l54 -46 1641 -3 c903 -1 1656 0 1674 3 l32 6 0 349 c0 326 -1
350 -17 352 -29 3 -210 4 -1100 6 l-843 2 0 194 0 194 848 4 c527 3 856 8 871
14 l23 10 -1 314 c-1 172 -4 317 -7 322 -3 4 -401 8 -884 8 l-879 0 6 168 c3
105 9 170 16 174 6 4 427 7 934 8 507 0 928 2 935 4 7 3 25 7 41 10 l27 6 0
360 0 360 -1472 0 -1471 0 4 -602 4 -603 -225 -3 c-131 -1 -229 -7 -234 -12
-6 -6 -18 -41 -27 -78 -18 -72 -82 -292 -96 -329 -8 -21 -27 -4 -232 201
l-223 223 154 115 c84 63 209 154 278 203 190 135 170 100 170 299 0 156 -3
177 -25 241 -13 38 -41 93 -62 123 -87 127 -295 232 -519 261 -128 17 -341 19
-454 6z m385 -35 c209 -20 374 -80 471 -172 49 -46 84 -93 84 -114 0 -3 -21
18 -47 47 -59 65 -203 137 -335 169 -233 55 -617 39 -831 -35 -215 -74 -401
-250 -447 -424 -16 -60 -24 -44 -11 20 41 189 224 371 445 443 193 63 440 87
671 66z m-2425 -59 c0 -31 -30 -33 -432 -30 -222 2 -480 2 -574 1 l-171 -2
-91 -187 c-101 -209 -147 -310 -197 -428 -18 -44 -56 -129 -84 -189 -28 -60
-51 -112 -50 -115 0 -3 31 55 69 129 38 74 69 132 69 128 1 -4 -44 -103 -98
-220 -55 -117 -140 -303 -191 -413 -50 -110 -96 -204 -101 -210 -11 -11 -5 8
30 89 12 27 20 50 18 52 -4 5 -248 -491 -389 -791 -194 -412 -233 -493 -236
-485 -5 12 98 243 238 535 80 168 310 664 310 670 0 11 562 1209 651 1388 l43
87 593 0 c334 0 593 -4 593 -9z m6384 3 c9 -3 16 -12 16 -20 0 -12 -206 -14
-1374 -14 -1236 0 -1376 2 -1390 16 -9 8 -16 17 -16 20 0 6 2747 5 2764 -2z
m-6324 -164 c42 -94 59 -135 211 -505 43 -104 96 -235 119 -290 173 -414 365
-904 357 -911 -2 -3 -36 80 -302 736 -86 212 -194 475 -240 585 -46 110 -104
250 -128 310 -25 61 -53 128 -62 150 -9 22 -12 36 -7 30 6 -5 29 -53 52 -105z
m-1334 -137 c-8 -15 -15 -25 -16 -21 0 12 23 58 27 54 3 -2 -2 -17 -11 -33z
m2724 13 c0 -2 -8 -10 -17 -17 -16 -13 -17 -12 -4 4 13 16 21 21 21 13z m-62
-102 c-69 -148 -59 -340 25 -507 25 -48 39 -83 32 -77 -7 6 -29 43 -49 83 -85
173 -89 363 -10 520 36 71 37 57 2 -19z m2249 -111 c-3 -10 -5 -2 -5 17 0 19
2 27 5 18 2 -10 2 -26 0 -35z m-617 -42 c0 -43 -5 -56 -37 -93 -21 -24 -51
-55 -68 -68 -16 -14 -4 5 28 43 53 62 57 71 57 117 0 28 5 50 10 50 6 0 10
-22 10 -49z m-1012 -6 c-6 -14 -13 -23 -15 -21 -5 5 15 46 22 46 3 0 -1 -11
-7 -25z m341 -18 c100 -66 118 -181 39 -254 -47 -45 -152 -112 -163 -104 -80
59 -151 121 -170 150 -33 48 -35 126 -3 166 60 77 212 98 297 42z m-3753 -10
c-17 -42 -45 -94 -46 -86 0 10 51 119 56 119 2 0 -2 -15 -10 -33z m5059 -259
c9 -364 21 -452 25 -188 l3 195 11 -120 c10 -99 17 -128 39 -165 44 -73 32
-155 -23 -166 -16 -4 -32 -15 -35 -25 -7 -23 -25 -25 -25 -4 0 29 -30 16 -37
-16 -4 -20 -8 -26 -14 -18 -5 9 -42 14 -121 15 -62 2 -130 5 -150 8 -21 3 -40
1 -43 -5 -8 -12 -45 -12 -45 0 0 5 -14 4 -30 -2 -25 -9 -33 -9 -39 2 -8 12
-30 -34 -56 -117 -4 -13 -9 -22 -11 -19 -3 2 7 40 21 83 13 44 25 87 25 97 0
9 1 18 3 19 1 1 112 5 247 8 l245 6 -241 2 c-198 2 -244 -1 -253 -12 -10 -12
-50 -115 -143 -369 -6 -15 -13 -26 -15 -23 -3 3 18 78 45 168 28 90 58 189 67
221 l16 57 259 0 258 0 -1 325 c-1 179 1 325 4 325 3 0 9 -127 14 -282z m1840
249 c94 -1 -100 -3 -430 -5 -330 -1 -605 2 -612 6 -10 6 614 6 1042 -1z
m-3551 -26 c-3 -15 -1 -54 6 -86 15 -71 45 -106 180 -209 90 -69 102 -75 123
-65 54 29 156 109 219 172 57 58 68 75 68 102 0 19 5 37 12 41 17 11 4 -96
-18 -141 -28 -60 -234 -245 -273 -245 -21 0 -151 85 -211 138 -71 63 -110 140
-117 226 -5 60 -1 96 11 96 3 0 3 -13 0 -29z m2497 -518 c9 -11 169 -13 880
-13 573 0 869 -3 869 -10 0 -11 -1736 -15 -1764 -4 -19 7 -20 62 -8 370 l7
199 3 -264 c1 -175 6 -269 13 -278z m-5078 490 c-7 -2 -19 -2 -25 0 -7 3 -2 5
12 5 14 0 19 -2 13 -5z m3437 -166 c0 -2 -12 -14 -27 -28 l-28 -24 24 28 c23
25 31 32 31 24z m-3327 -307 c58 -140 134 -319 170 -397 l65 -143 -349 0
c-192 0 -349 4 -349 8 0 5 27 71 61 148 33 76 103 240 156 364 52 124 102 240
110 259 8 19 18 30 23 25 5 -5 56 -124 113 -264z m851 191 c16 -30 137 -325
162 -394 7 -21 9 -35 3 -32 -13 8 -57 104 -104 225 -20 52 -47 123 -61 158
-13 34 -24 64 -24 67 0 13 11 2 24 -24z m-1163 -108 c-12 -20 -14 -14 -5 12 4
9 9 14 11 11 3 -2 0 -13 -6 -23z m2344 -19 c9 -15 12 -23 6 -20 -11 7 -35 46
-28 46 3 0 12 -12 22 -26z m-2364 -31 c-12 -20 -14 -14 -5 12 4 9 9 14 11 11
3 -2 0 -13 -6 -23z m3339 23 c0 -3 -15 -14 -32 -26 l-33 -22 28 26 c27 25 37
31 37 22z m3743 -44 c2 -4 1 -117 -3 -252 -4 -136 -8 -201 -9 -145 -2 55 -2
159 -1 231 l2 131 -39 6 c-21 4 -417 7 -880 7 -464 0 -843 4 -843 8 0 5 3 12
7 15 9 10 1761 8 1766 -1z m-3458 -411 c205 -207 231 -230 242 -214 16 21 16
13 3 -23 l-11 -27 -87 84 c-238 228 -559 549 -555 553 11 11 185 -149 408
-373z m-1110 291 c-21 -18 -124 -54 -136 -46 -7 4 -10 3 -6 -3 3 -5 -20 -22
-51 -37 -181 -88 -289 -171 -354 -270 -21 -33 -38 -55 -38 -50 0 16 58 96 102
143 24 24 83 71 133 103 49 32 85 58 79 58 -16 0 -187 -114 -232 -154 -53 -49
-111 -135 -139 -211 -27 -74 -29 -62 -4 22 56 185 204 332 421 420 92 37 171
55 187 42 10 -9 13 -7 13 7 0 17 1 17 17 1 11 -10 13 -20 8 -25z m782 -44 c3
-7 -8 -2 -25 10 -17 13 -35 28 -39 34 -3 7 8 2 25 -10 17 -13 35 -28 39 -34z
m3018 -341 c55 -2 -137 -4 -427 -5 -289 -1 -533 -5 -542 -8 -10 -4 -16 -1 -16
7 0 12 75 14 442 11 244 -1 488 -3 543 -5z m-3359 -178 c104 -100 224 -213
267 -252 42 -39 77 -74 77 -78 0 -7 -92 -49 -155 -70 -26 -9 -87 -14 -170 -14
-111 0 -141 4 -204 24 -133 44 -216 136 -228 253 -7 72 18 157 60 205 44 50
125 113 146 113 10 0 103 -82 207 -181z m-2291 71 c18 -20 17 -20 -448 -20
-257 0 -467 2 -467 5 0 3 15 12 33 20 26 11 112 14 448 15 403 0 416 -1 434
-20z m-472 -47 c-83 -2 -223 -2 -310 0 -87 1 -18 3 152 3 171 0 242 -2 158 -3z
m400 0 c-40 -2 -106 -2 -145 0 -40 1 -8 3 72 3 80 0 112 -2 73 -3z m3821 -452
c-2 -2 -39 31 -82 74 l-80 77 50 86 c28 48 62 110 77 137 l26 50 6 -210 c3
-115 5 -212 3 -214z m-2784 294 c0 -5 -5 -3 -10 5 -5 8 -10 20 -10 25 0 6 5 3
10 -5 5 -8 10 -19 10 -25z m2741 -342 c90 -93 186 -188 212 -212 27 -23 46
-45 43 -49 -4 -3 -25 12 -49 35 -210 202 -373 363 -389 387 -46 63 21 5 183
-161z m-1732 90 c88 -54 167 -75 292 -81 142 -5 240 16 374 82 105 51 125 59
125 46 0 -17 -153 -103 -238 -133 -121 -43 -279 -50 -400 -17 -112 30 -242
110 -242 148 0 12 4 12 23 -2 12 -9 42 -28 66 -43z m4652 -5 c5 -7 9 -15 9
-18 0 -9 -1924 2 -1940 10 -49 28 54 30 979 26 773 -4 945 -7 952 -18z m-6713
-45 c-203 -2 -533 -2 -735 0 -203 1 -37 2 367 2 404 0 570 -1 368 -2z m2309
-99 c-3 -3 -12 -4 -19 -1 -8 3 -5 6 6 6 11 1 17 -2 13 -5z m-4308 -133 c-18
-39 -33 -70 -35 -68 -2 2 10 36 28 75 17 39 33 70 35 68 2 -2 -10 -36 -28 -75z
m5226 -21 c10 -11 16 -20 13 -20 -3 0 -13 9 -23 20 -10 11 -16 20 -13 20 3 0
13 -9 23 -20z m-205 -55 c0 -2 -10 -9 -22 -15 -22 -11 -22 -10 -4 4 21 17 26
19 26 11z m-55 -35 c-3 -5 -12 -10 -18 -10 -7 0 -6 4 3 10 19 12 23 12 15 0z
m1691 -144 c1745 -7 1865 -8 1809 -16 -27 -5 -707 -9 -1511 -9 l-1460 -1 -55
51 c-50 47 -50 48 -8 15 l45 -35 1180 -5z m-3316 4 c14 -4 -155 -8 -375 -7
-238 1 -347 3 -270 7 198 9 617 9 645 0z m1347 -16 c-3 -3 -12 -4 -19 -1 -8 3
-5 6 6 6 11 1 17 -2 13 -5z m-4574 -11 c-7 -2 -19 -2 -25 0 -7 3 -2 5 12 5 14
0 19 -2 13 -5z m429 0 c-73 -2 -190 -2 -260 0 -70 1 -10 3 133 3 143 0 200 -2
127 -3z m165 1 c-3 -3 -12 -4 -19 -1 -8 3 -5 6 6 6 11 1 17 -2 13 -5z m3940 0
c-3 -3 -12 -4 -19 -1 -8 3 -5 6 6 6 11 1 17 -2 13 -5z m-60 -10 c-3 -3 -12 -4
-19 -1 -8 3 -5 6 6 6 11 1 17 -2 13 -5z m-74 -11 c-13 -2 -35 -2 -50 0 -16 2
-5 4 22 4 28 0 40 -2 28 -4z m232 -23 c-11 -5 -29 -8 -40 -8 -16 0 -15 2 5 8
34 11 60 11 35 0z m-1962 -17 c-13 -2 -35 -2 -50 0 -16 2 -5 4 22 4 28 0 40
-2 28 -4z m54 1 c-3 -3 -12 -4 -19 -1 -8 3 -5 6 6 6 11 1 17 -2 13 -5z m91 -1
c-10 -2 -26 -2 -35 0 -10 3 -2 5 17 5 19 0 27 -2 18 -5z m59 1 c-3 -3 -12 -4
-19 -1 -8 3 -5 6 6 6 11 1 17 -2 13 -5z m96 -1 c-13 -2 -35 -2 -50 0 -16 2 -5
4 22 4 28 0 40 -2 28 -4z m100 0 c-13 -2 -35 -2 -50 0 -16 2 -5 4 22 4 28 0
40 -2 28 -4z"/>
<path d="M13904 11518 l-29 -33 33 29 c17 17 32 31 32 33 0 8 -8 1 -36 -29z"/>
<path d="M13813 11452 c-23 -15 -43 -31 -43 -35 0 -10 27 6 65 37 38 32 31 31
-22 -2z"/>
<path d="M12980 11155 c-14 -8 -20 -14 -15 -14 6 0 21 6 35 14 14 8 21 14 15
14 -5 0 -21 -6 -35 -14z"/>
<path d="M12925 11130 c-3 -6 1 -7 9 -4 18 7 21 14 7 14 -6 0 -13 -4 -16 -10z"/>
<path d="M5258 12427 c-5 -10 -8 -42 -8 -70 1 -40 3 -48 11 -34 5 9 9 41 7 70
-2 35 -5 46 -10 34z"/>
<path d="M5238 12254 c-5 -4 -8 -30 -7 -58 l1 -51 9 45 c10 49 8 76 -3 64z"/>
<path d="M5216 12059 c-8 -42 0 -50 9 -9 4 17 5 34 2 36 -2 3 -7 -10 -11 -27z"/>
<path d="M7270 11680 c0 -23 38 -28 58 -8 20 20 14 28 -23 28 -28 0 -35 -4
-35 -20z"/>
<path d="M6267 11326 c-5 -14 2 -16 50 -16 65 0 62 18 -4 27 -31 4 -41 2 -46
-11z"/>
<path d="M9360 9230 c-239 -3 -332 -7 -285 -12 97 -11 8933 -10 8939 0 3 5
-255 12 -572 15 -653 8 -7537 5 -8082 -3z"/>
<path d="M11171 8979 c-53 -63 -56 -79 -17 -79 20 0 156 92 156 105 0 5 -68
35 -80 35 -5 0 -31 -27 -59 -61z"/>
<path d="M13602 9008 c-14 -19 -54 -99 -50 -103 2 -2 14 -6 28 -10 22 -5 30 0
56 37 17 24 36 53 43 66 11 21 10 22 -27 22 -22 0 -44 -6 -50 -12z"/>
<path d="M9108 8844 c-10 -9 -10 -119 -1 -337 l6 -167 42 0 c50 0 56 12 48 96
l-6 54 75 0 c92 0 166 21 200 57 76 81 53 240 -40 280 -40 18 -310 32 -324 17z
m293 -113 c34 -42 19 -119 -28 -140 -13 -6 -55 -11 -93 -11 l-70 0 0 33 c-1
17 -2 58 -5 90 l-3 59 90 -4 c80 -3 92 -6 109 -27z"/>
<path d="M9714 8753 c-25 -54 -63 -141 -84 -193 -21 -52 -50 -121 -64 -153
-14 -32 -26 -60 -26 -63 0 -3 23 -4 51 -2 l51 3 22 55 22 55 121 3 120 3 22
-61 22 -60 50 0 c27 0 49 3 49 6 0 7 -151 375 -185 452 l-24 52 -51 0 -51 0
-45 -97z m135 -95 c18 -46 35 -89 38 -95 4 -10 -15 -13 -76 -13 -45 0 -81 3
-81 8 0 15 73 182 80 182 4 0 22 -37 39 -82z"/>
<path d="M10177 8843 c-4 -3 -7 -118 -7 -255 l0 -248 50 0 50 0 0 255 0 255
-43 0 c-24 0 -47 -3 -50 -7z"/>
<path d="M10408 8643 c-1 -115 -2 -228 -3 -253 l0 -45 50 0 50 0 -3 153 c-3
101 0 152 7 152 10 0 26 -19 191 -218 70 -84 78 -91 113 -91 l37 -1 0 256 0
255 -47 -3 -48 -3 -3 -152 c-1 -84 -7 -153 -12 -153 -9 0 -55 53 -189 219 -67
82 -78 91 -108 91 l-33 0 -2 -207z"/>
<path d="M10990 8848 c-2 -26 -3 -312 -2 -396 l2 -112 188 2 187 3 3 43 3 42
-73 1 c-40 0 -104 1 -143 2 l-70 2 -3 58 -3 57 126 0 125 0 0 45 0 45 -125 0
-125 0 0 60 0 60 140 0 140 0 0 45 0 45 -185 0 c-102 0 -185 -1 -185 -2z"/>
<path d="M11484 8837 c-2 -7 -4 -121 -2 -253 l3 -239 48 -3 47 -3 2 235 c1
130 2 244 2 254 1 13 -9 18 -47 20 -33 2 -49 -1 -53 -11z"/>
<path d="M11795 8836 c-48 -22 -77 -60 -82 -110 -12 -100 20 -136 150 -166
112 -25 137 -40 137 -80 0 -41 -28 -53 -110 -48 -54 3 -74 9 -103 31 l-36 27
-27 -35 c-32 -42 -26 -53 51 -90 42 -21 67 -26 132 -27 132 0 193 45 193 142
0 89 -46 129 -179 154 -88 17 -111 30 -111 64 0 33 8 45 37 61 32 17 72 13
134 -12 l56 -23 21 33 c12 18 22 37 22 42 0 36 -225 66 -285 37z"/>
<path d="M12677 8843 c-3 -5 -8 -119 -12 -255 l-7 -248 44 0 45 0 7 162 c7
153 12 191 23 160 3 -7 36 -60 74 -118 64 -97 71 -104 102 -104 31 0 36 6 94
103 34 56 65 110 68 120 16 39 25 12 25 -70 0 -49 3 -125 7 -170 l6 -83 50 0
50 0 -6 63 c-4 34 -9 130 -12 212 -3 83 -8 169 -11 193 l-5 42 -43 0 -44 0
-85 -129 c-47 -72 -87 -135 -89 -142 -7 -21 -25 -2 -79 88 -29 48 -68 109 -87
135 -30 43 -38 48 -72 48 -22 0 -41 -3 -43 -7z"/>
<path d="M13554 8838 c-21 -32 -214 -479 -214 -494 0 -3 23 -4 51 -2 l51 3 22
55 22 55 121 3 121 3 19 -58 20 -58 52 -3 c64 -4 70 -32 -60 273 l-98 230 -50
3 c-32 2 -52 -1 -57 -10z m97 -198 l37 -90 -79 0 c-44 0 -79 4 -79 10 0 9 21
65 55 144 9 21 19 35 22 32 4 -3 23 -47 44 -96z"/>
<path d="M14104 8831 c-92 -42 -153 -135 -154 -232 0 -144 90 -245 238 -264
30 -4 52 -12 52 -19 0 -7 17 -29 39 -50 46 -45 105 -58 146 -32 28 19 31 33
11 59 -14 18 -15 18 -42 1 l-27 -18 -28 34 -29 34 27 14 c112 57 167 193 128
313 -23 67 -104 152 -161 168 -61 17 -153 13 -200 -8z m183 -88 c109 -51 122
-224 22 -290 -34 -22 -46 -25 -108 -21 -61 3 -74 7 -100 32 -39 37 -55 85 -49
148 12 116 129 182 235 131z"/>
<path d="M14599 8846 c-2 -2 -2 -89 1 -193 5 -187 5 -188 34 -230 39 -59 93
-83 185 -83 104 0 161 33 207 120 16 30 19 59 19 210 l0 175 -47 3 -48 3 0
-163 c0 -140 -3 -168 -19 -198 -23 -45 -53 -60 -119 -60 -44 0 -57 4 -76 25
-32 34 -36 62 -36 241 l0 154 -48 0 c-27 0 -51 -2 -53 -4z"/>
<path d="M15200 8596 l0 -256 50 0 50 0 -2 253 -3 252 -47 3 -48 3 0 -255z"/>
<path d="M15457 8843 c-4 -3 -7 -118 -7 -255 l0 -248 51 0 51 0 -3 160 c-2 88
-1 159 2 158 9 -4 114 -122 168 -188 91 -112 112 -130 153 -130 l38 0 0 256 0
255 -52 -3 -53 -3 -3 -153 c-2 -123 -5 -153 -16 -150 -8 2 -53 53 -101 113
-136 171 -159 195 -193 195 -16 0 -32 -3 -35 -7z"/>
<path d="M16177 8748 c-51 -116 -167 -395 -167 -404 0 -3 23 -4 52 -2 l52 3
19 58 20 57 123 0 c81 0 124 -4 124 -11 0 -6 10 -33 21 -60 l21 -49 49 0 c27
0 49 3 49 6 0 4 -11 32 -24 63 -22 50 -129 304 -170 404 -15 36 -16 37 -69 37
l-54 0 -46 -102z m139 -93 c18 -44 33 -86 34 -92 0 -9 -21 -13 -75 -13 -52 0
-75 4 -75 12 0 24 65 178 74 175 5 -2 24 -39 42 -82z"/>
<path d="M16714 8836 c-65 -29 -97 -107 -72 -180 18 -54 48 -73 163 -101 124
-31 151 -59 104 -106 -18 -18 -30 -21 -95 -17 -65 3 -77 7 -104 33 l-31 29
-24 -29 c-31 -38 -31 -55 0 -78 42 -31 107 -48 181 -48 120 -1 184 42 191 128
8 97 -40 141 -182 168 -84 16 -115 35 -115 70 0 56 75 77 167 46 34 -12 64
-21 67 -21 2 0 14 16 26 37 25 42 22 45 -54 68 -61 18 -180 19 -222 1z"/>
<path d="M17377 8844 c-4 -4 -7 -119 -7 -256 l0 -248 190 0 190 0 0 23 c0 12
3 32 6 45 l6 22 -141 0 -141 0 0 60 0 60 115 0 115 0 0 45 0 45 -115 0 -115 0
0 38 c0 20 -3 47 -6 60 l-6 22 141 0 142 0 -3 43 -3 42 -181 3 c-99 1 -183 -1
-187 -4z"/>
<path d="M12225 8410 c-18 -36 -18 -35 0 -53 13 -14 13 -20 -4 -58 -22 -49
-20 -59 14 -59 17 0 31 13 54 48 57 89 51 152 -14 152 -28 0 -37 -6 -50 -30z"/>
<path d="M9015 8031 c-11 -4 51 -11 143 -14 205 -9 8799 -9 8830 0 18 4 20 8
10 14 -16 11 -8956 10 -8983 0z"/>
<path d="M12729 7797 l-37 -62 25 -3 c17 -2 30 4 40 17 18 26 29 26 50 1 27
-31 53 -26 53 10 0 27 -3 30 -30 30 -34 0 -37 10 -14 45 16 25 16 25 -17 25
-31 -1 -37 -7 -70 -63z"/>
<path d="M12355 7705 c-5 -2 -27 -6 -48 -10 -42 -7 -100 -53 -124 -98 -19 -38
-20 -135 0 -173 21 -40 50 -65 110 -94 59 -29 80 -66 30 -56 -32 7 -64 -8 -48
-22 21 -19 76 -31 100 -22 26 10 41 47 31 78 -6 16 -1 21 28 26 19 4 46 16 61
27 l26 21 -22 24 -22 23 -27 -19 c-37 -26 -135 -27 -166 -2 -32 25 -46 58 -46
108 0 82 57 130 144 122 26 -3 56 -12 66 -22 17 -15 20 -14 42 9 19 20 21 27
11 39 -18 22 -120 50 -146 41z"/>
<path d="M15404 7700 c-50 -15 -79 -55 -79 -107 0 -55 32 -87 97 -98 75 -13
118 -34 118 -60 0 -12 -7 -29 -17 -36 -25 -22 -99 -16 -135 11 l-30 22 -25
-25 -25 -24 30 -22 c71 -50 210 -47 252 7 59 75 18 155 -90 177 -84 16 -100
25 -100 55 0 16 7 30 16 34 27 11 80 7 117 -9 34 -14 37 -14 51 7 22 31 21 34
-16 51 -43 20 -125 28 -164 17z"/>
<path d="M9602 7683 c-8 -14 -120 -272 -149 -340 -4 -9 7 -13 34 -13 38 0 41
2 53 40 l13 40 89 0 90 0 15 -40 c15 -37 19 -40 54 -40 l38 0 -39 93 c-116
278 -112 272 -152 275 -27 2 -39 -2 -46 -15z m74 -138 c13 -32 24 -60 24 -62
0 -2 -25 -3 -55 -3 -30 0 -55 3 -55 7 0 19 46 123 54 120 4 -1 19 -29 32 -62z"/>
<path d="M9910 7568 c0 -115 3 -137 20 -166 30 -49 75 -72 143 -72 75 0 118
21 145 69 19 34 22 54 22 170 l0 131 -34 0 -34 0 -4 -129 c-3 -122 -5 -131
-28 -156 -20 -22 -32 -25 -69 -23 -35 2 -48 9 -65 31 -18 25 -21 45 -24 153
l-4 124 -34 0 -34 0 0 -132z"/>
<path d="M10337 7693 c-4 -3 -7 -17 -7 -29 0 -21 5 -23 63 -26 l62 -3 -3 -30
c-1 -16 0 -85 4 -152 l6 -123 35 0 34 0 -7 155 -7 155 62 0 61 0 0 30 0 30
-148 0 c-82 0 -152 -3 -155 -7z"/>
<path d="M10805 7686 c-59 -26 -105 -101 -105 -171 0 -68 44 -141 102 -171 38
-20 151 -18 195 3 71 33 111 143 83 227 -14 45 -53 92 -91 111 -35 19 -143 19
-184 1z m178 -84 c24 -25 31 -41 35 -85 4 -49 1 -57 -24 -86 -36 -40 -92 -55
-142 -38 -99 33 -106 184 -11 235 40 21 107 9 142 -26z"/>
<path d="M11207 7633 c-4 -38 -9 -121 -13 -185 l-7 -118 37 0 36 0 1 98 c2
155 4 157 74 57 42 -59 66 -85 80 -85 14 0 36 25 75 88 l55 87 7 -50 c3 -27 7
-83 7 -122 l1 -73 36 0 36 0 -6 168 c-4 92 -10 175 -12 185 -4 11 -15 17 -34
17 -24 0 -37 -10 -68 -52 -43 -60 -70 -102 -88 -137 -12 -22 -15 -19 -83 83
-63 93 -75 106 -100 106 -28 0 -29 -1 -34 -67z"/>
<path d="M11867 7688 c-3 -7 -34 -80 -70 -163 -88 -206 -86 -195 -43 -195 33
0 38 4 52 40 l16 41 91 -3 90 -3 12 -35 c10 -30 16 -35 48 -38 20 -2 37 -1 37
1 0 4 -70 172 -130 315 -22 50 -24 52 -60 52 -21 0 -40 -6 -43 -12z m73 -130
c14 -35 27 -66 28 -70 2 -5 -24 -8 -58 -8 -34 0 -60 3 -58 8 2 4 14 35 28 70
14 34 27 62 30 62 3 0 16 -28 30 -62z"/>
<path d="M12705 7638 c-15 -35 -42 -97 -60 -138 -18 -41 -42 -96 -54 -122
l-20 -48 38 0 c36 0 40 3 55 40 l16 40 89 0 89 0 16 -40 c14 -36 19 -40 51
-40 19 0 35 1 35 3 0 1 -34 83 -74 182 l-75 180 -39 3 -39 3 -28 -63z m98 -90
l25 -63 -55 -3 c-30 -2 -57 -1 -59 1 -7 6 47 127 56 127 4 0 19 -28 33 -62z"/>
<path d="M13125 7686 c-43 -18 -93 -79 -101 -121 -17 -93 22 -187 93 -220 47
-23 148 -23 191 -1 129 67 134 257 8 331 -49 29 -139 34 -191 11z m145 -61
c35 -18 70 -73 70 -110 0 -38 -27 -91 -56 -110 -29 -19 -102 -22 -133 -6 -54
29 -77 121 -47 180 28 53 109 76 166 46z"/>
<path d="M13720 7516 l0 -186 35 0 35 0 0 175 c0 96 1 178 3 183 1 4 -15 8
-35 10 l-38 3 0 -185z"/>
<path d="M13940 7515 l0 -185 35 0 35 0 0 111 c0 83 3 110 12 107 7 -3 54 -51
104 -109 75 -86 96 -105 122 -107 l32 -3 -2 183 -3 183 -37 3 -38 3 0 -116 c0
-64 -4 -115 -8 -113 -9 3 -154 171 -181 209 -8 11 -25 19 -42 19 l-29 0 0
-185z"/>
<path d="M14420 7516 l0 -186 88 0 c141 0 207 28 237 102 37 92 5 203 -70 242
-31 16 -64 22 -147 24 l-108 4 0 -186z m194 110 c48 -20 76 -61 76 -112 0 -74
-63 -124 -157 -124 l-31 0 -4 118 c-2 64 -2 120 0 125 5 12 80 8 116 -7z"/>
<path d="M14882 7568 c4 -149 15 -184 71 -219 48 -30 165 -24 202 11 49 45 55
69 55 210 l0 130 -35 0 -35 0 0 -120 c0 -167 -18 -197 -111 -188 -53 5 -69 43
-76 187 l-6 121 -35 0 -34 0 4 -132z"/>
<path d="M15697 7693 c-4 -3 -7 -17 -7 -30 0 -22 4 -23 60 -23 l60 0 0 -62 c0
-75 7 -89 43 -86 27 2 27 3 27 75 l0 73 58 0 c32 0 61 2 64 5 3 3 3 17 0 30
l-4 25 -147 0 c-81 0 -151 -3 -154 -7z"/>
<path d="M16108 7605 c-2 -53 -2 -136 0 -185 l3 -90 34 0 35 0 0 55 0 55 48 0
c45 -1 48 -2 87 -55 36 -49 44 -54 78 -55 20 0 37 2 37 5 0 3 -18 30 -40 59
l-41 53 36 36 c30 30 35 42 35 81 0 106 -45 136 -204 136 l-105 0 -3 -95z
m228 10 c20 -27 17 -62 -6 -85 -16 -16 -33 -20 -85 -20 l-65 0 0 66 0 66 71
-4 c55 -3 74 -8 85 -23z"/>
<path d="M16548 7682 c-3 -11 -3 -94 0 -185 l5 -167 33 0 34 0 0 185 0 185
-34 0 c-24 0 -35 -5 -38 -18z"/>
<path d="M16851 7663 c-20 -40 -141 -321 -141 -329 0 -2 16 -4 36 -4 32 0 37
4 52 40 l17 40 88 0 89 0 15 -40 c15 -37 19 -40 53 -40 l38 0 -43 103 c-114
272 -108 262 -148 265 -33 3 -38 0 -56 -35z m83 -112 c14 -36 26 -66 26 -68 0
-2 -27 -3 -59 -3 l-60 0 15 35 c7 19 21 51 29 72 8 20 17 34 19 32 2 -2 16
-33 30 -68z"/>
<path d="M17197 7694 c-4 -4 -7 -88 -7 -186 l0 -178 135 0 135 0 0 30 0 30
-95 0 -94 0 -3 153 -3 152 -30 3 c-17 2 -34 0 -38 -4z"/>
<path d="M15815 7460 c-4 -6 -4 -38 0 -71 7 -57 8 -59 36 -59 l29 0 0 65 c0
49 -3 65 -14 65 -8 0 -21 3 -29 6 -8 3 -18 0 -22 -6z"/>
</g>
</svg>
