<?xml version="1.0" standalone="no"?>
<!DOCTYPE svg PUBLIC "-//W3C//DTD SVG 20010904//EN"
 "http://www.w3.org/TR/2001/REC-SVG-20010904/DTD/svg10.dtd">
<svg version="1.0" xmlns="http://www.w3.org/2000/svg"
 width="1080.000000pt" height="1350.000000pt" viewBox="0 0 1080.000000 1350.000000"
 preserveAspectRatio="xMidYMid meet">

<g transform="translate(0.000000,1350.000000) scale(0.100000,-0.100000)"
fill="#000000" stroke="none">
<path d="M5196 9949 c-152 -16 -357 -66 -334 -81 9 -6 6 -7 -9 -3 -21 6 -42
-4 -161 -71 -46 -26 -192 -133 -192 -140 0 -3 5 -2 12 2 7 5 8 3 4 -5 -5 -7
-11 -10 -14 -7 -7 7 -52 -33 -52 -46 0 -5 6 -6 13 -2 6 4 3 -2 -7 -14 -22 -26
-35 -30 -15 -5 8 9 9 14 3 10 -22 -13 -94 -145 -118 -218 -33 -98 -41 -195
-26 -305 21 -165 79 -293 202 -447 l57 -71 -52 -22 c-249 -102 -408 -254 -496
-476 -41 -103 -54 -182 -55 -340 0 -76 -1 -138 -2 -138 -2 0 -41 96 -204 510
-32 80 -115 285 -185 455 -70 171 -172 420 -226 554 -55 134 -124 300 -153
370 -30 69 -80 187 -111 261 -31 74 -63 145 -71 158 l-15 22 -681 -2 -681 -3
-97 -215 c-53 -118 -124 -273 -158 -343 -34 -70 -62 -130 -62 -132 0 -2 -53
-116 -119 -252 -65 -136 -138 -293 -162 -348 -24 -55 -49 -106 -56 -113 -7 -7
-10 -19 -7 -27 4 -8 1 -15 -6 -15 -6 0 -8 -4 -5 -10 3 -5 1 -10 -5 -10 -6 0
-14 -10 -19 -22 -13 -34 -205 -453 -245 -536 -20 -40 -36 -75 -36 -78 0 -4
-44 -99 -99 -213 -54 -113 -121 -255 -149 -316 -28 -60 -89 -191 -136 -290
-46 -99 -82 -183 -80 -186 2 -3 36 -12 76 -18 52 -9 215 -11 571 -9 429 3 499
5 507 18 5 8 33 71 61 140 72 175 142 321 168 348 l22 22 667 0 c367 0 672 -4
678 -8 10 -6 98 -206 184 -414 l31 -77 52 -6 c73 -9 1029 -2 1044 8 14 9 -1
54 -93 275 -31 74 -53 137 -49 140 4 4 11 -2 17 -13 20 -39 165 -168 258 -230
151 -101 381 -181 588 -205 109 -12 302 -12 407 1 44 5 98 12 120 15 100 11
219 36 261 54 25 11 53 20 63 20 27 0 158 66 235 120 40 28 74 50 77 50 2 0
55 -50 118 -110 62 -61 126 -117 142 -125 25 -13 262 -15 1840 -15 996 0 1815
3 1820 6 5 3 9 168 9 384 0 335 -2 379 -16 384 -9 3 -490 6 -1070 6 l-1054 0
0 214 0 214 928 5 c510 2 937 7 950 12 l22 7 0 263 c0 144 -3 303 -6 353 l-7
92 -960 0 -960 0 6 179 c3 99 8 185 12 190 4 8 315 11 1013 11 993 0 1085 3
1104 33 9 14 11 738 2 761 -6 15 -157 16 -1611 16 l-1606 0 8 -660 7 -660
-245 0 c-210 0 -248 -2 -261 -16 -9 -8 -16 -23 -16 -32 0 -9 -28 -111 -62
-225 l-61 -209 -244 244 -243 243 22 18 c75 59 336 252 473 349 l160 114 3
170 c3 191 -4 235 -52 340 -78 168 -249 288 -490 344 -157 36 -422 49 -610 29z
m419 -39 c186 -18 363 -74 469 -150 56 -40 115 -112 126 -153 l9 -32 -16 25
c-47 71 -123 128 -230 173 -197 83 -318 102 -603 94 -308 -8 -479 -48 -656
-155 -43 -26 -78 -51 -77 -57 0 -5 -19 -31 -43 -57 -135 -145 -190 -310 -164
-498 19 -136 88 -289 194 -425 17 -22 22 -33 12 -25 -29 23 -136 186 -166 254
-58 128 -76 301 -45 420 23 86 77 182 146 259 33 37 56 67 51 67 -17 0 -125
-124 -160 -182 -18 -31 -43 -83 -54 -117 -12 -34 -23 -59 -25 -57 -11 11 22
128 55 195 70 143 242 282 432 349 194 67 488 96 745 72z m-2655 -57 c0 -5 -5
-15 -10 -23 -8 -13 -76 -15 -532 -11 -288 1 -573 0 -635 -4 l-111 -7 -105
-217 c-57 -119 -126 -265 -152 -326 -27 -60 -93 -207 -147 -325 -55 -118 -102
-222 -104 -230 -11 -35 102 191 192 383 53 114 99 206 101 204 2 -2 -51 -123
-118 -268 -67 -145 -174 -379 -239 -519 -111 -242 -188 -401 -190 -390 0 3 31
77 70 165 38 87 69 160 67 161 -3 3 -527 -1073 -527 -1082 0 -3 -44 -98 -98
-212 -55 -114 -102 -216 -106 -226 -3 -10 -9 -17 -11 -14 -12 11 103 268 380
853 81 171 169 360 195 420 68 157 136 304 312 680 86 182 169 359 186 395 98
213 246 520 268 557 l25 43 644 0 c355 0 645 -3 645 -7z m6899 0 c77 -5 91 -9
89 -22 -3 -15 -137 -16 -1503 -16 l-1500 0 -25 22 -25 22 1436 1 c790 0 1477
-3 1528 -7z m-6857 -130 c41 -91 152 -355 248 -593 43 -107 95 -233 115 -280
20 -47 75 -179 121 -295 46 -115 89 -219 94 -230 35 -74 232 -596 227 -601 -2
-2 -35 76 -74 174 -39 97 -108 267 -153 377 -45 110 -133 328 -197 485 -116
288 -261 640 -358 870 -61 146 -66 160 -59 160 3 0 19 -30 36 -67z m-1366 -55
c-13 -29 -34 -75 -46 -101 -12 -27 -24 -47 -26 -44 -5 5 84 197 91 197 3 0 -6
-24 -19 -52z m4479 2 c21 -22 37 -40 34 -40 -3 0 -23 18 -44 40 -21 22 -37 40
-34 40 3 0 23 -18 44 -40z m125 -210 c0 -8 -12 12 -25 45 -14 33 -25 62 -24
65 1 11 49 -96 49 -110z m-4714 -27 c-8 -15 -15 -25 -16 -21 0 12 23 58 27 54
3 -2 -2 -17 -11 -33z m4724 -120 l0 -127 -112 -111 c-62 -61 -133 -125 -158
-144 -33 -24 -28 -18 15 20 96 84 212 208 229 244 12 24 16 63 16 139 0 58 2
106 5 106 3 0 5 -57 5 -127z m700 -333 c13 -481 27 -587 30 -230 l3 245 9
-148 c8 -141 10 -150 42 -210 31 -56 33 -67 27 -110 -8 -49 -35 -85 -61 -80
-9 2 -21 -10 -30 -29 l-14 -33 -10 28 c-12 33 -36 36 -36 5 0 -32 -15 -55 -23
-35 -5 12 -26 15 -106 15 -56 0 -130 3 -165 7 -42 5 -66 3 -70 -4 -9 -15 -43
-14 -48 1 -3 7 -11 9 -24 3 -39 -16 -54 -16 -47 3 4 13 3 14 -6 6 -7 -6 -30
-59 -51 -117 -21 -57 -43 -113 -50 -123 -11 -18 -11 -18 -5 1 63 194 89 273
95 285 6 13 50 16 271 20 l264 6 -265 2 c-146 1 -270 -2 -276 -6 -6 -4 -36
-77 -68 -162 -99 -268 -109 -295 -113 -284 -2 6 18 80 45 165 27 85 59 193 72
242 l23 87 284 0 283 0 2 458 c0 251 3 444 4 427 2 -16 8 -212 14 -435z
m-5479 337 c-10 -9 -11 -8 -5 6 3 10 9 15 12 12 3 -3 0 -11 -7 -18z m3691 -49
c-11 -18 -22 -40 -25 -48 -5 -13 -6 -13 -6 0 -1 16 35 80 45 80 3 0 -3 -15
-14 -32z m358 -36 c55 -34 87 -80 96 -138 12 -84 -12 -121 -137 -209 l-80 -56
-72 59 c-136 111 -168 163 -153 245 6 34 37 69 88 100 71 44 185 44 258 -1z
m-438 -61 c-7 -76 22 -158 71 -205 58 -53 234 -186 247 -186 24 0 170 108 238
177 40 40 76 73 81 73 4 0 13 30 19 68 l10 67 -2 -75 c-3 -91 -23 -138 -86
-201 -65 -65 -212 -179 -231 -179 -26 0 -221 134 -263 180 -52 58 -87 139 -94
215 -4 55 2 115 12 115 2 0 1 -22 -2 -49z m4063 34 c6 -2 -287 -4 -650 -4
-363 0 -666 3 -673 8 -12 7 1301 4 1323 -4z m-1348 -285 c-6 -253 -5 -291 9
-305 14 -13 122 -15 965 -15 629 0 949 -3 949 -10 0 -7 -324 -9 -967 -8 l-968
3 -3 300 c-1 165 0 305 3 312 15 41 18 -17 12 -277z m-5537 233 c-14 -2 -31
-12 -37 -21 -7 -9 -13 -11 -13 -6 0 18 24 34 50 33 l25 -2 -25 -4z m110 -488
c57 -137 139 -329 182 -425 44 -96 82 -181 85 -188 4 -10 -72 -12 -376 -12
-259 1 -381 4 -381 11 0 6 79 196 176 422 97 227 180 423 186 436 5 14 12 20
17 15 5 -5 55 -121 111 -259z m1056 -90 c106 -259 101 -245 77 -215 -23 29
-68 123 -113 235 -38 94 -110 295 -109 304 1 14 65 -129 145 -324z m-1355 218
c-12 -20 -14 -14 -5 12 4 9 9 14 11 11 3 -2 0 -13 -6 -23z m399 -18 c0 -5 -5
-3 -10 5 -5 8 -10 20 -10 25 0 6 5 3 10 -5 5 -8 10 -19 10 -25z m-437 -78
c-14 -37 -28 -65 -30 -63 -2 2 8 34 23 70 14 37 28 65 30 63 2 -2 -8 -33 -23
-70z m457 28 c0 -5 -5 -3 -10 5 -5 8 -10 20 -10 25 0 6 5 3 10 -5 5 -8 10 -19
10 -25z m3205 -13 c-41 -35 -97 -73 -101 -69 -3 3 18 21 48 41 49 34 74 47 53
28z m4061 -65 c0 -1 -2 -123 -6 -272 -4 -148 -8 -220 -9 -160 -1 61 -2 174 -1
251 1 123 -1 142 -15 148 -9 3 -442 6 -961 6 -590 0 -944 4 -944 10 0 30 40
31 985 25 522 -3 950 -7 951 -8z m-7770 -64 c-8 -15 -15 -25 -16 -21 0 12 23
58 27 54 3 -2 -2 -17 -11 -33z m3626 -33 c37 -30 191 -179 343 -331 l276 -276
14 26 c17 32 19 7 2 -33 l-12 -28 -353 342 c-306 298 -378 373 -344 358 4 -1
37 -28 74 -58z m-838 -19 c3 -5 0 -13 -7 -18 -22 -17 -137 -54 -147 -48 -13 8
-163 -63 -249 -117 -168 -105 -251 -200 -307 -351 -27 -72 -31 -60 -8 21 31
109 82 191 174 283 75 74 102 93 201 142 144 72 261 107 291 88 19 -12 20 -11
15 8 -4 18 -2 19 13 11 11 -6 21 -14 24 -19z m-2813 -8 c-12 -20 -14 -14 -5
12 4 9 9 14 11 11 3 -2 0 -13 -6 -23z m3669 -70 c0 -7 -73 53 -95 78 -11 13 6
1 38 -25 31 -27 57 -51 57 -53z m-1095 -41 c-224 -119 -330 -209 -393 -332
-18 -36 -30 -54 -26 -40 12 48 68 135 119 186 68 66 158 127 275 186 123 62
142 62 25 0z m2422 -309 c-2 -21 -4 -4 -4 37 0 41 2 58 4 38 2 -21 2 -55 0
-75z m1632 -8 c365 -3 667 -7 669 -10 3 -3 -315 -5 -706 -5 -622 0 -712 2
-712 15 0 11 10 14 43 10 23 -2 341 -7 706 -10z m-3378 -162 c97 -93 228 -217
292 -277 64 -60 117 -112 117 -116 0 -16 -144 -72 -222 -87 -140 -26 -320 -3
-438 57 -80 41 -142 126 -160 219 -12 62 10 170 45 223 30 45 152 148 175 148
9 0 95 -75 191 -167z m-1116 27 c-7 -25 -14 -38 -14 -29 -1 18 20 82 25 77 2
-2 -3 -24 -11 -48z m-1352 22 c15 -10 24 -21 21 -24 -6 -7 -1006 2 -1013 8 -2
2 11 10 30 18 28 13 110 15 484 16 419 0 452 -1 478 -18z m2000 -27 c-3 -9 -8
-14 -10 -11 -3 3 -2 9 2 15 9 16 15 13 8 -4z m-2225 -32 c-148 -2 -388 -2
-535 0 -148 1 -27 2 267 2 294 0 415 -1 268 -2z m4320 -372 l-3 -119 -86 82
-85 83 54 94 c30 52 68 121 86 154 l31 60 3 -117 c1 -64 1 -171 0 -237z
m-6137 122 c-11 -21 -20 -35 -21 -31 0 12 33 78 38 74 2 -2 -6 -21 -17 -43z
m-50 -110 c-11 -21 -20 -35 -21 -31 0 12 33 78 38 74 2 -2 -6 -21 -17 -43z
m6181 -225 c124 -125 231 -228 237 -228 6 0 11 -4 11 -10 0 -5 -5 -10 -12 -10
-14 0 -498 480 -498 493 0 16 28 -11 262 -245z m-1964 163 c118 -81 223 -111
388 -111 139 0 234 23 369 89 110 53 145 67 145 54 0 -13 -123 -91 -192 -122
-127 -57 -172 -66 -323 -65 -127 0 -148 2 -220 28 -113 39 -235 121 -235 158
0 13 8 10 68 -31z m5114 -25 c21 -31 8 -35 -84 -31 -81 4 -1455 15 -1898 15
-134 0 -152 2 -135 14 11 7 29 16 40 18 11 3 481 3 1045 0 733 -4 1027 -8
1032 -16z m-6942 -50 c8 -2 -345 -4 -785 -4 -440 0 -792 3 -783 6 17 7 1538 5
1568 -2z m2077 -102 c-3 -3 -12 -4 -19 -1 -8 3 -5 6 6 6 11 1 17 -2 13 -5z
m-4635 -120 c-26 -60 -54 -118 -61 -129 -18 -29 -8 -3 48 125 28 62 51 116 51
119 0 2 2 2 5 -1 3 -3 -16 -54 -43 -114z m4711 109 c-13 -2 -33 -2 -45 0 -13
2 -3 4 22 4 25 0 35 -2 23 -4z m150 0 c-7 -2 -19 -2 -25 0 -7 3 -2 5 12 5 14
0 19 -2 13 -5z m1036 -356 l73 -67 1662 -2 c913 -1 1640 -3 1614 -5 -27 -2
-48 -8 -48 -14 0 -5 -604 -9 -1606 -9 l-1605 0 -159 151 c-88 83 -163 156
-166 162 -4 7 31 -24 77 -69 46 -44 117 -110 158 -147z m-369 167 c-14 -16
-137 -90 -167 -100 -10 -3 11 11 47 32 36 20 79 48 95 61 35 27 43 29 25 7z
m-5609 -97 c-10 -9 -11 -8 -5 6 3 10 9 15 12 12 3 -3 0 -11 -7 -18z m5414 -17
c-3 -5 -12 -10 -18 -10 -7 0 -6 4 3 10 19 12 23 12 15 0z m-95 -40 c-8 -5 -19
-10 -25 -10 -5 0 -3 5 5 10 8 5 20 10 25 10 6 0 3 -5 -5 -10z m-103 -36 c-3
-3 -12 -4 -19 -1 -8 3 -5 6 6 6 11 1 17 -2 13 -5z m-57 -14 c-14 -4 -34 -8
-45 -8 -16 0 -15 2 5 8 14 4 34 8 45 8 16 0 15 -2 -5 -8z m3328 -7 c-438 -2
-1158 -2 -1600 0 -442 1 -83 2 797 2 880 0 1241 -1 803 -2z m-4752 -20 c-5 -5
-790 -6 -841 -1 -16 1 152 5 375 8 387 5 477 3 466 -7z m1341 11 c-3 -3 -12
-4 -19 -1 -8 3 -5 6 6 6 11 1 17 -2 13 -5z m-454 -11 c-7 -2 -21 -2 -30 0 -10
3 -4 5 12 5 17 0 24 -2 18 -5z m395 0 c-16 -2 -40 -2 -55 0 -16 2 -3 4 27 4
30 0 43 -2 28 -4z m239 1 c-3 -3 -12 -4 -19 -1 -8 3 -5 6 6 6 11 1 17 -2 13
-5z m-394 -11 c-40 -2 -106 -2 -145 0 -40 1 -8 3 72 3 80 0 112 -2 73 -3z
m322 -8 c-22 -8 -51 -13 -65 -13 -16 0 -10 4 20 12 59 17 96 18 45 1z m-4340
-5 c-4 -6 -165 -9 -458 -8 l-452 3 450 5 c248 3 454 6 458 8 5 1 5 -2 2 -8z
m4233 -17 c-10 -2 -26 -2 -35 0 -10 3 -2 5 17 5 19 0 27 -2 18 -5z m-350 -10
c-15 -2 -42 -2 -60 0 -18 2 -6 4 27 4 33 0 48 -2 33 -4z m259 0 c-20 -2 -52
-2 -70 0 -17 2 0 4 38 4 39 0 53 -2 32 -4z m263 -23 c-14 -4 -34 -8 -45 -8
-16 0 -15 2 5 8 14 4 34 8 45 8 16 0 15 -2 -5 -8z m-2117 -17 c-24 -2 -62 -2
-85 0 -24 2 -5 4 42 4 47 0 66 -2 43 -4z m370 0 c-57 -2 -149 -2 -205 0 -57 1
-11 3 102 3 113 0 159 -2 103 -3z m1674 1 c-3 -3 -12 -4 -19 -1 -8 3 -5 6 6 6
11 1 17 -2 13 -5z m2071 -21 c-197 -2 -519 -2 -715 0 -197 1 -36 2 357 2 393
0 554 -1 358 -2z m425 0 c-7 -2 -19 -2 -25 0 -7 3 -2 5 12 5 14 0 19 -2 13 -5z
m124 1 c-3 -3 -12 -4 -19 -1 -8 3 -5 6 6 6 11 1 17 -2 13 -5z"/>
<path d="M1137 8655 c-24 -50 -20 -58 4 -12 11 22 19 41 17 43 -3 2 -12 -12
-21 -31z"/>
<path d="M1092 8555 c-30 -62 -27 -71 4 -12 14 27 24 51 22 53 -3 2 -14 -17
-26 -41z"/>
<path d="M5644 8908 l-19 -23 23 19 c21 18 27 26 19 26 -2 0 -12 -10 -23 -22z"/>
<path d="M5584 8859 c-10 -12 -54 -46 -97 -77 -43 -30 -76 -57 -73 -60 3 -3
23 7 43 21 44 31 161 136 152 137 -3 0 -14 -10 -25 -21z"/>
<path d="M615 6340 c-259 -3 -375 -8 -330 -12 97 -11 9765 -10 9765 0 0 5
-300 12 -667 15 -753 8 -8151 5 -8768 -3z"/>
<path d="M2577 6063 c-31 -37 -57 -71 -57 -75 0 -4 14 -8 31 -8 30 0 80 30
149 88 l35 30 -28 11 c-69 27 -70 26 -130 -46z"/>
<path d="M5210 6058 c-37 -65 -37 -76 -3 -84 22 -6 31 -1 54 27 15 19 37 51
49 72 l21 37 -45 0 c-44 0 -46 -1 -76 -52z"/>
<path d="M3320 5923 c-58 -10 -91 -26 -118 -58 -54 -61 -51 -153 6 -208 20
-19 51 -31 119 -46 138 -30 171 -52 157 -106 -14 -56 -154 -60 -229 -7 l-44
31 -30 -36 c-35 -42 -32 -50 33 -87 122 -70 309 -53 359 32 24 42 23 128 -3
170 -24 39 -66 58 -169 78 -91 17 -126 39 -126 80 0 21 9 34 35 52 41 27 81
25 163 -10 l49 -21 19 24 c27 35 33 60 18 70 -42 27 -185 52 -239 42z"/>
<path d="M8650 5915 c-25 -9 -57 -29 -71 -44 -48 -52 -46 -155 3 -209 28 -30
49 -38 146 -58 42 -9 89 -22 105 -30 24 -13 28 -20 25 -52 -4 -45 -31 -62
-106 -62 -55 0 -100 17 -141 54 -17 15 -25 17 -28 8 -3 -7 -16 -25 -29 -41
l-23 -28 22 -21 c71 -67 243 -90 340 -45 76 35 107 125 69 203 -25 50 -70 76
-168 94 -119 22 -138 32 -142 78 -3 31 1 40 24 55 37 23 116 21 178 -6 53 -23
55 -23 87 37 16 28 8 34 -66 58 -74 24 -172 27 -225 9z"/>
<path d="M322 5646 l3 -276 53 0 52 0 0 79 0 79 98 4 c126 5 186 31 220 98 48
96 17 225 -63 265 -34 17 -65 20 -203 23 l-164 4 4 -276z m298 165 c46 -24 61
-75 37 -126 -21 -45 -49 -55 -146 -55 l-79 0 -1 100 -2 100 78 0 c57 0 88 -5
113 -19z"/>
<path d="M997 5843 c-44 -98 -197 -460 -197 -468 0 -3 25 -5 56 -3 l57 3 21
60 21 60 134 0 133 0 23 -60 22 -60 56 -3 55 -3 -43 108 c-24 59 -74 183 -112
275 l-68 168 -61 0 -61 0 -36 -77z m121 -85 c11 -29 29 -77 41 -105 l21 -53
-91 0 c-69 0 -90 3 -86 13 3 6 23 54 44 104 21 51 41 93 44 93 3 0 15 -24 27
-52z"/>
<path d="M1488 5910 c-1 -5 -2 -129 0 -275 l3 -265 53 0 54 0 -4 268 c-2 147
-4 270 -4 275 0 11 -98 8 -102 -3z"/>
<path d="M1747 5913 c-2 -5 -5 -128 -6 -275 l-2 -268 55 0 56 0 0 170 c0 94 3
170 8 169 7 0 95 -105 220 -261 61 -76 63 -78 107 -78 l45 0 0 275 0 275 -55
0 -55 0 0 -170 c0 -103 -4 -170 -10 -170 -9 0 -71 73 -220 258 -60 75 -68 81
-102 82 -20 0 -39 -3 -41 -7z"/>
<path d="M2375 5645 l0 -275 208 0 207 0 0 50 0 50 -155 0 -155 0 0 65 0 65
135 0 135 0 0 45 0 45 -135 0 -135 0 0 70 0 70 150 0 150 0 0 45 0 45 -202 0
-203 0 0 -275z"/>
<path d="M2920 5645 l0 -275 55 0 55 0 0 275 0 275 -55 0 -55 0 0 -275z"/>
<path d="M4217 5788 c-4 -73 -10 -197 -13 -275 l-7 -143 50 0 51 0 7 180 c4
99 10 180 14 180 3 0 42 -58 86 -128 73 -116 83 -127 112 -130 38 -4 56 18
143 171 30 53 57 97 60 97 3 0 6 -33 7 -73 2 -39 5 -123 9 -184 l6 -113 55 0
56 0 -6 63 c-4 34 -9 130 -12 212 -3 83 -8 178 -11 213 l-6 62 -51 0 -52 0
-84 -133 c-46 -72 -91 -143 -99 -156 -14 -24 -15 -24 -66 59 -28 46 -73 116
-99 156 l-48 74 -48 0 -48 0 -6 -132z"/>
<path d="M5151 5858 c-47 -106 -201 -473 -201 -481 0 -4 24 -7 54 -7 l54 0 25
63 25 62 130 3 130 3 22 -66 22 -65 58 0 59 0 -56 133 c-31 72 -82 195 -114
272 l-57 140 -61 3 -61 3 -29 -63z m129 -148 c19 -47 38 -91 43 -97 7 -10 -11
-13 -82 -13 -50 0 -91 3 -91 6 0 19 84 204 90 197 4 -4 22 -46 40 -93z"/>
<path d="M5786 5905 c-47 -17 -120 -86 -148 -139 -50 -96 -30 -228 47 -314 50
-55 97 -79 181 -88 45 -6 57 -11 64 -29 12 -32 86 -92 122 -99 36 -7 102 20
105 44 2 8 -4 24 -13 35 -14 19 -16 19 -45 2 -31 -17 -31 -17 -60 14 -36 38
-36 43 -3 58 122 55 185 211 138 342 -23 64 -90 140 -147 168 -52 25 -179 28
-241 6z m191 -94 c91 -42 130 -168 81 -260 -61 -113 -236 -124 -305 -19 -65
97 -29 233 71 279 52 24 100 24 153 0z"/>
<path d="M6320 5756 c0 -189 9 -250 46 -305 38 -58 97 -84 192 -84 89 0 132
15 181 64 64 65 71 92 71 302 l0 187 -55 0 -55 0 0 -182 c0 -166 -2 -186 -20
-216 -39 -64 -144 -83 -199 -36 -43 36 -51 77 -51 267 l0 167 -55 0 -55 0 0
-164z"/>
<path d="M6978 5878 c-2 -24 -2 -148 0 -275 l5 -233 55 0 55 0 -6 208 c-4 114
-7 237 -7 275 l0 67 -49 0 -49 0 -4 -42z"/>
<path d="M7250 5645 l0 -275 56 0 57 0 -5 175 -4 175 34 -32 c19 -18 88 -97
153 -175 l119 -143 52 0 51 0 -6 143 c-4 78 -7 202 -7 275 l0 132 -55 0 -55 0
-2 -167 c-2 -108 -7 -168 -14 -170 -6 -2 -46 40 -89 94 -194 242 -195 243
-242 243 l-43 0 0 -275z"/>
<path d="M8047 5818 c-26 -57 -76 -175 -112 -263 -36 -88 -69 -166 -72 -173
-4 -10 8 -12 53 -10 l59 3 21 60 21 60 134 0 133 0 24 -62 24 -63 54 0 c30 0
54 2 54 5 0 9 -103 257 -149 358 -15 34 -39 90 -52 125 l-24 62 -61 0 -61 0
-46 -102z m113 -12 c0 -3 18 -50 39 -105 l39 -101 -88 0 -88 0 42 105 c22 57
44 104 49 105 4 0 7 -2 7 -4z"/>
<path d="M9350 5645 l0 -275 204 0 c203 0 204 0 210 23 3 12 6 34 6 50 l0 27
-149 0 -149 0 -4 61 c-1 33 -1 63 1 65 2 2 60 4 128 4 l123 0 0 45 0 45 -124
0 -123 0 -7 53 c-11 95 -25 87 144 87 l150 0 0 45 0 45 -205 0 -205 0 0 -275z"/>
<path d="M3740 5460 c-22 -22 -27 -76 -8 -82 9 -3 8 -16 -5 -49 -24 -63 -22
-71 15 -67 27 3 36 12 64 63 35 62 42 102 24 136 -14 25 -64 25 -90 -1z"/>
<path d="M220 5031 c-16 -5 14 -10 84 -14 166 -11 9736 -9 9736 2 0 5 -7 12
-16 15 -22 9 -9774 6 -9804 -3z"/>
<path d="M4322 4841 c-8 -6 -82 -129 -82 -137 0 -2 11 -4 25 -4 16 0 35 11 49
27 l23 27 25 -27 c36 -39 58 -36 58 8 0 33 -2 35 -35 35 -41 0 -42 3 -15 40
l20 28 -30 4 c-16 3 -33 2 -38 -1z"/>
<path d="M7215 4671 c-90 -22 -129 -96 -90 -170 16 -31 38 -42 135 -66 75 -19
90 -29 90 -60 0 -54 -79 -70 -155 -31 l-49 25 -23 -21 c-19 -17 -21 -24 -10
-36 24 -29 91 -52 155 -52 111 0 162 37 162 118 0 54 -36 95 -101 112 -103 28
-123 36 -133 53 -15 23 3 49 40 60 22 6 46 3 87 -11 l57 -20 15 21 c8 12 15
27 15 33 0 28 -137 59 -195 45z"/>
<path d="M812 4533 c-68 -156 -112 -260 -112 -268 0 -3 17 -5 39 -5 36 0 39 2
55 45 l18 45 98 0 98 0 18 -45 c16 -43 19 -45 55 -45 22 0 39 2 39 4 0 7 -65
165 -90 221 -13 28 -35 79 -50 115 -26 64 -27 65 -67 68 l-40 3 -61 -138z
m157 -98 c1 -6 -24 -11 -60 -11 -59 -1 -60 0 -54 23 3 13 17 49 31 81 l26 57
28 -70 c16 -38 29 -75 29 -80z"/>
<path d="M1202 4518 c3 -142 5 -155 26 -186 71 -99 253 -95 310 7 20 35 22 53
22 185 l0 147 -37 -3 -38 -3 -3 -140 c-3 -136 -3 -140 -30 -168 -23 -24 -33
-28 -76 -25 -40 2 -53 8 -70 31 -18 25 -22 47 -26 165 l-5 137 -38 3 -38 3 3
-153z"/>
<path d="M1664 4656 c-3 -8 -4 -23 -2 -33 3 -15 15 -19 72 -21 l68 -3 -2 -82
c-2 -45 -2 -121 -2 -169 l2 -88 35 0 35 0 0 170 0 170 65 0 65 0 0 35 0 35
-165 0 c-135 0 -167 -3 -171 -14z"/>
<path d="M2191 4659 c-81 -32 -124 -100 -125 -196 0 -51 5 -70 30 -109 40 -66
96 -94 184 -94 93 0 145 28 182 99 58 111 22 238 -83 291 -41 22 -145 27 -188
9z m149 -74 c50 -26 70 -61 70 -126 0 -50 -4 -63 -27 -89 -53 -59 -157 -59
-207 0 -96 114 33 283 164 215z"/>
<path d="M2617 4598 c-4 -40 -9 -133 -13 -205 l-7 -133 35 0 c33 0 36 2 42 38
3 20 6 79 6 130 0 50 3 92 8 92 4 0 36 -41 70 -90 75 -106 98 -115 131 -52 11
20 38 63 59 95 l39 58 7 -47 c3 -26 6 -87 6 -135 l0 -89 41 0 41 0 -7 183 c-9
215 -13 230 -57 225 -27 -3 -40 -16 -99 -103 -38 -55 -68 -106 -69 -112 -1
-28 -18 -8 -90 102 -69 106 -77 115 -106 115 l-31 0 -6 -72z"/>
<path d="M3265 4484 c-44 -103 -83 -195 -87 -206 -6 -16 -2 -18 35 -18 41 0
43 2 58 43 l16 42 100 3 100 3 13 -46 c12 -44 13 -45 55 -45 l43 0 -68 163
c-103 250 -98 242 -145 245 l-40 3 -80 -187z m175 -31 c8 -20 5 -22 -51 -28
-33 -4 -63 -5 -66 -1 -5 5 4 33 43 121 l17 40 25 -55 c13 -30 28 -65 32 -77z"/>
<path d="M3785 4651 c-84 -38 -134 -129 -120 -220 13 -85 40 -118 138 -167 64
-31 81 -58 37 -60 -52 -2 -60 -4 -60 -14 0 -15 56 -40 90 -40 23 0 35 7 50 32
17 29 18 35 5 54 -13 21 -12 22 26 28 21 3 53 18 70 34 l30 27 -25 24 -25 23
-27 -21 c-35 -28 -147 -30 -180 -3 -73 58 -69 185 8 232 44 26 122 27 165 0
l32 -19 21 26 c28 36 26 41 -22 63 -56 26 -158 26 -213 1z"/>
<path d="M4282 4658 c-10 -13 -172 -384 -172 -394 0 -3 19 -4 42 -2 39 3 42 6
57 46 l15 43 100 -3 99 -3 16 -42 c14 -40 17 -43 54 -43 45 0 46 -8 -20 150
-24 58 -56 134 -70 170 -34 84 -39 90 -78 90 -18 0 -37 -6 -43 -12z m83 -169
c13 -32 20 -60 17 -63 -9 -10 -122 -7 -122 3 0 5 7 25 15 45 49 119 45 112 57
92 6 -10 21 -45 33 -77z"/>
<path d="M4714 4655 c-44 -20 -102 -88 -110 -130 -29 -156 55 -265 205 -265
133 0 217 87 209 216 -7 118 -91 195 -212 193 -34 0 -75 -7 -92 -14z m167 -78
c20 -14 41 -41 53 -69 18 -45 19 -48 2 -92 -24 -62 -63 -89 -131 -89 -65 0
-98 22 -121 80 -29 74 -3 151 59 178 48 21 99 18 138 -8z"/>
<path d="M5360 4465 l0 -205 40 0 40 0 0 205 0 205 -40 0 -40 0 0 -205z"/>
<path d="M5607 4663 c-4 -3 -7 -96 -7 -205 l0 -198 40 0 40 0 0 125 c0 69 4
125 9 125 4 0 57 -56 115 -125 92 -107 112 -125 137 -125 l29 0 0 205 0 205
-40 0 -40 0 0 -125 c0 -134 -6 -146 -44 -98 -93 120 -191 223 -211 223 -12 0
-25 -3 -28 -7z"/>
<path d="M6130 4465 l0 -205 80 0 c203 0 283 57 284 204 0 148 -75 206 -271
206 l-93 0 0 -205z m213 121 c48 -20 69 -50 75 -104 8 -92 -39 -139 -149 -149
l-58 -6 -3 133 c-2 72 -1 134 1 136 10 10 104 3 134 -10z"/>
<path d="M6631 4523 c4 -126 7 -153 24 -182 36 -61 67 -76 155 -76 90 0 120
15 157 81 21 35 23 53 23 182 l0 143 -37 -3 -38 -3 -5 -140 c-3 -86 -10 -149
-18 -162 -25 -45 -122 -45 -156 0 -18 25 -22 47 -26 165 l-5 137 -39 3 -38 3
3 -148z"/>
<path d="M7516 4654 c-3 -8 -6 -24 -6 -35 0 -17 8 -19 70 -19 l70 0 0 -80 0
-80 35 0 35 0 0 80 0 79 68 3 67 3 0 30 0 30 -166 3 c-145 2 -167 0 -173 -14z"/>
<path d="M7970 4465 l0 -205 40 0 40 0 -2 63 -2 62 33 3 c55 6 74 -5 121 -68
43 -57 46 -60 88 -60 l44 0 -28 38 c-15 20 -38 50 -51 65 l-23 28 40 38 c37
35 40 42 40 93 0 68 -29 117 -80 135 -19 7 -86 12 -147 12 l-113 1 0 -205z
m230 122 c34 -17 40 -77 11 -106 -17 -17 -34 -21 -93 -21 l-73 0 2 67 c1 38 2
69 3 71 1 8 130 -1 150 -11z"/>
<path d="M8450 4466 l0 -206 40 0 40 0 -2 203 -3 202 -37 3 -38 3 0 -205z"/>
<path d="M8781 4628 c-10 -24 -31 -70 -46 -103 -39 -87 -105 -247 -105 -257 0
-4 16 -8 36 -8 32 0 37 4 55 45 l20 45 99 0 98 0 14 -42 c14 -41 17 -43 56
-46 23 -2 42 -2 42 0 0 3 -50 122 -135 321 l-37 87 -39 0 c-37 0 -41 -3 -58
-42z m94 -131 c14 -37 25 -68 25 -70 0 -7 -116 2 -118 10 -6 15 50 145 59 136
4 -4 19 -38 34 -76z"/>
<path d="M9157 4663 c-4 -3 -7 -96 -7 -205 l0 -198 150 0 150 0 0 35 0 35
-110 0 -110 0 0 170 0 170 -33 0 c-19 0 -37 -3 -40 -7z"/>
<path d="M7650 4340 l0 -80 34 0 c32 0 34 2 40 46 10 78 9 84 -29 100 -19 7
-37 14 -40 14 -3 0 -5 -36 -5 -80z"/>
</g>
</svg>
